<svg width="98" height="90" viewBox="0 0 98 90" fill="none" xmlns="http://www.w3.org/2000/svg">
<path d="M35.2877 15.916C41.4461 5.24935 56.8421 5.24935 63.0005 15.916L87.6822 58.666C93.8406 69.3327 86.1426 82.666 73.8258 82.666H24.4623C12.1455 82.666 4.44754 69.3327 10.6059 58.666L35.2877 15.916Z" fill="#D6EAFF"/>
<path d="M35.2884 15.9141C41.4468 5.2474 56.8429 5.2474 63.0013 15.9141L87.6829 58.6641C93.7451 69.164 86.3806 82.2478 74.4007 82.6543L73.8265 82.6641V81.6641C85.3735 81.6641 92.5902 69.1641 86.8167 59.1641L62.1351 16.4141C56.3615 6.41415 41.9281 6.41415 36.1546 16.4141L11.473 59.1641C5.69945 69.1641 12.9162 81.6641 24.4632 81.6641V82.6641L23.889 82.6543C12.0992 82.2543 4.77973 69.5762 10.3284 59.166L10.6067 58.6641L35.2884 15.9141ZM73.8265 81.6641V82.6641H24.4632V81.6641H73.8265Z" fill="#D6EAFF"/>
<path d="M20.9697 88.8386L21.4238 88.8718C21.8793 88.9004 22.3403 88.9148 22.8066 88.9148V89.9148L22.0186 89.9011C21.297 89.8767 20.5878 89.8169 19.8916 89.7273L19.9727 88.7556L20.9697 88.8386ZM24.6963 88.9148V89.9148H22.8066V88.9148H24.6963ZM25.6963 88.9148V89.9148H24.6963V88.9148H25.6963ZM28.4736 88.9148V89.9148H27.4736V88.9148H28.4736ZM32.251 88.9148V89.9148H28.4736V88.9148H32.251ZM33.251 88.9148V89.9148H32.251V88.9148H33.251ZM36.0283 88.9148V89.9148H35.0283V88.9148H36.0283ZM39.8057 88.9148V89.9148H36.0283V88.9148H39.8057ZM40.8057 88.9148V89.9148H39.8057V88.9148H40.8057ZM43.584 88.9148V89.9148H42.584V88.9148H43.584ZM47.3613 88.9148V89.9148H43.584V88.9148H47.3613ZM48.3613 88.9148V89.9148H47.3613V88.9148H48.3613ZM51.1387 88.9148V89.9148H50.1387V88.9148H51.1387ZM54.916 88.9148V89.9148H51.1387V88.9148H54.916ZM55.916 88.9148V89.9148H54.916V88.9148H55.916ZM58.6943 88.9148V89.9148H57.6943V88.9148H58.6943ZM62.4717 88.9148V89.9148H58.6943V88.9148H62.4717ZM63.4717 88.9148V89.9148H62.4717V88.9148H63.4717ZM66.249 88.9148V89.9148H65.249V88.9148H66.249ZM70.0264 88.9148V89.9148H66.249V88.9148H70.0264ZM71.0264 88.9148V89.9148H70.0264V88.9148H71.0264ZM73.8037 88.9148V89.9148H72.8037V88.9148H73.8037ZM75.6934 88.9148V89.9148H73.8037V88.9148H75.6934ZM78.6074 89.7273C77.9115 89.8168 77.2027 89.8767 76.4814 89.9011L75.6934 89.9148V88.9148C76.3153 88.9148 76.9278 88.889 77.5303 88.8386L78.5273 88.7556L78.6074 89.7273ZM13.9199 86.9793L14.332 87.1648C15.1613 87.5287 16.0224 87.8416 16.9131 88.0974L17.3604 88.2205L18.3271 88.4744L18.0791 89.4168C16.1261 88.9978 14.2926 88.3247 12.6025 87.4402L13.0137 86.5574L13.9199 86.9793ZM85.8965 87.4402C84.2063 88.3246 82.373 88.9979 80.4199 89.4168L80.1729 88.4744L81.1396 88.2205L81.5869 88.0974C82.6259 87.799 83.6252 87.4236 84.5801 86.9793L85.4863 86.5574L85.8965 87.4402ZM7.95898 82.7839L7.60352 83.1355L7.60449 83.1365L7.95898 82.7839C8.81668 83.6475 9.7519 84.4401 10.7559 85.1472L11.5732 85.7224L11.0117 86.5193C9.35495 85.4633 7.86192 84.1956 6.56152 82.7625L7.25488 82.075L7.95898 82.7839ZM91.9375 82.7625C90.637 84.1956 89.1442 85.4633 87.4873 86.5193L86.9268 85.7224L87.7441 85.1472C88.7481 84.4401 89.6833 83.6475 90.541 82.7839L91.2451 82.075L91.9375 82.7625ZM3.77734 76.7986L3.97656 77.2127C4.45169 78.1716 4.9984 79.0949 5.61133 79.9724L6.18359 80.7918L5.38281 81.3503C4.19688 79.8043 3.21653 78.1067 2.46875 76.3074L3.35254 75.8933L3.77734 76.7986ZM96.0303 76.3074C95.2824 78.1067 94.3022 79.8043 93.1162 81.3503L92.3164 80.7918L92.8887 79.9714L93.1475 79.5935C93.7415 78.703 94.268 77.7679 94.7227 76.7986L95.1475 75.8933L96.0303 76.3074ZM1.86035 69.7586L1.90723 70.2166C2.0285 71.2824 2.23149 72.3338 2.51172 73.3611L2.77441 74.3259L1.83301 74.5828C1.24002 72.7406 0.8861 70.8141 0.797852 68.8513L1.76855 68.7625L1.86035 69.7586ZM97.7012 68.8513C97.6129 70.8142 97.2591 72.7405 96.666 74.5828L95.7256 74.3259L95.9883 73.3611C96.3086 72.1869 96.5279 70.9814 96.6396 69.7586L96.7314 68.7625L97.7012 68.8513ZM2.75488 61.5359L2.49316 62.5017L2.37598 62.9509C2.11621 63.9998 1.94298 65.0525 1.85156 66.1013L1.76465 67.0984L0.792969 67.0134C0.869933 65.1072 1.20171 63.1818 1.81348 61.28L2.75488 61.5359ZM96.6855 61.28C97.2974 63.1819 97.6291 65.1071 97.7061 67.0134L96.7354 67.0984L96.6484 66.1013L96.6045 65.6521C96.506 64.7521 96.3467 63.8501 96.124 62.9509L96.0068 62.5007L95.7451 61.5359L96.6855 61.28ZM6.05273 54.9285L4.60938 57.4343C4.29888 57.9735 4.01485 58.5178 3.75781 59.0652L3.33301 59.9705L2.4502 59.5554C2.81767 58.6729 3.24585 57.7972 3.74219 56.9353L5.18457 54.4285L6.05273 54.9285ZM94.7578 56.9353C95.2541 57.7971 95.6814 58.673 96.0488 59.5554L95.167 59.9705L94.7422 59.0652L94.5439 58.655C94.4088 58.3823 94.2676 58.1103 94.1191 57.8396L93.8906 57.4343L92.4473 54.9285L93.3145 54.4285L94.7578 56.9353ZM9.83008 48.3689L6.94336 53.3816L6.07617 52.8816L8.96289 47.8689L9.83008 48.3689ZM92.4229 52.8816L91.5566 53.3816L88.6699 48.3689L89.5361 47.8689L92.4229 52.8816ZM13.6074 41.8093L11.2197 45.9558L10.7207 46.822L9.85352 46.322L12.7402 41.3103L13.6074 41.8093ZM88.6455 46.322L87.7793 46.822L87.2803 45.9558L87.7139 45.7058L87.8281 45.6404L87.2803 45.9558L84.8926 41.8093L85.7588 41.3103L88.6455 46.322ZM17.3848 35.2498L14.498 40.2625L13.6309 39.7625L16.5176 34.7498L17.3848 35.2498ZM84.8682 39.7625L84.002 40.2625L81.1152 35.2498L81.9814 34.7498L84.8682 39.7625ZM21.1631 28.6902L18.2754 33.7029L17.4092 33.2039L20.2959 28.1902L21.1631 28.6902ZM81.0898 33.2039L80.2246 33.7029L77.3369 28.6902L78.2031 28.1902L81.0898 33.2039ZM23.5742 22.4988L24.0078 22.7478L24.4414 22.9978L22.0537 27.1433L21.1865 26.6433L23.5742 22.4988ZM74.9248 22.4988L77.3125 26.6433L76.4463 27.1433L74.0586 22.9978L74.4922 22.7478L74.9248 22.4988ZM24.9404 22.1306L24.4414 22.9978L23.5742 22.4988L24.0732 21.6316L24.9404 22.1306ZM74.9248 22.4988L74.4922 22.7478L74.0586 22.9978L73.5596 22.1306L74.4258 21.6316L74.9248 22.4988ZM28.7178 15.5711L25.8311 20.5837L24.9639 20.0847L25.4629 19.2185L27.8506 15.072L28.7178 15.5711ZM73.0361 19.2175L73.5352 20.0847L72.6689 20.5837L69.7822 15.5711L70.6484 15.072L73.0361 19.2175ZM31.626 9.67652L32.0371 9.96168C31.7783 10.335 31.5279 10.7199 31.2881 11.117L31.0518 11.5183L29.6084 14.0252L28.7412 13.5252L29.2402 12.6589L30.1855 11.0193C30.5104 10.4552 30.8558 9.91408 31.2168 9.39332L31.626 9.67652ZM67.2822 9.39332C67.6433 9.91422 67.9895 10.4551 68.3145 11.0193L69.2578 12.6589L69.7578 13.5252L68.8916 14.0252L67.4482 11.5183C67.1372 10.9783 66.8079 10.4595 66.4629 9.96168L66.874 9.67652L67.2822 9.39332ZM32.6064 9.13941L32.0371 9.96168L31.626 9.67652L31.2168 9.39332C31.408 9.1174 31.6039 8.84751 31.8047 8.58375L32.6064 9.13941ZM66.6943 8.58375C66.8951 8.84752 67.091 9.11739 67.2822 9.39332L66.874 9.67652L66.4629 9.96168L65.8936 9.13941L66.6943 8.58375ZM37.1758 4.77516C36.1894 5.46756 35.2521 6.25502 34.3779 7.13844L33.6748 7.84938L32.9814 7.16383C34.0878 5.93789 35.3035 4.86904 36.6016 3.95777L37.1758 4.77516ZM61.8975 3.95777C63.1956 4.86902 64.4112 5.93789 65.5176 7.16383L64.8252 7.84938L64.1221 7.13844L63.791 6.81227C63.0125 6.06013 62.1873 5.38105 61.3242 4.77516L61.8975 3.95777ZM37.9941 4.19996L37.1758 4.77516L36.6016 3.95777C36.8754 3.76556 37.1537 3.58032 37.4346 3.40211L37.9941 4.19996ZM61.0645 3.40211C61.3453 3.58032 61.6236 3.76556 61.8975 3.95777L61.3242 4.77516L60.5059 4.19996L61.0645 3.40211ZM40.3496 2.94605L39.4424 3.36695L39.0322 2.48121C39.3285 2.32704 39.6278 2.18059 39.9297 2.04078L40.3496 2.94605ZM58.5693 2.04078C58.8712 2.18058 59.1706 2.32705 59.4668 2.48121L59.0576 3.36695L58.1504 2.94605L58.5693 2.04078ZM44.7656 1.44898L43.7988 1.70387L43.3584 1.82594C42.3326 2.12081 41.3261 2.49385 40.3496 2.94605L39.9297 2.04078C41.4052 1.35741 42.9442 0.84479 44.5156 0.504649L44.7656 1.44898ZM53.9834 0.504649C55.5549 0.844727 57.0938 1.35747 58.5693 2.04078L58.3945 2.41969L58.1504 2.94605C57.1739 2.49385 56.1674 2.12081 55.1416 1.82594L54.7012 1.70387L53.7344 1.44898L53.9834 0.504649ZM46.334 0.190195C48.2682 -0.0634416 50.2308 -0.0633553 52.165 0.190195L52.082 1.16285L51.085 1.07691L50.627 1.04273C49.5573 0.973938 48.4832 0.98519 47.415 1.07691L46.418 1.16285L46.334 0.190195Z" fill="#D6EAFF"/>
<path d="M62.4719 68.5516C59.7969 69.9141 56.2969 69.9141 49.2969 69.9141H34.2969C31.9394 69.9141 30.7619 69.9141 30.0294 69.1816C29.2969 68.4491 29.2969 67.2716 29.2969 64.9141V49.9141C29.2969 42.9141 29.2969 39.4141 30.6594 36.7391C31.8578 34.3871 33.77 32.475 36.1219 31.2766C38.7969 29.9141 42.2969 29.9141 49.2969 29.9141C56.2969 29.9141 59.7969 29.9141 62.4719 31.2766C64.8238 32.475 66.736 34.3871 67.9344 36.7391C69.2969 39.4141 69.2969 42.9141 69.2969 49.9141C69.2969 53.2979 69.2969 55.8638 69.143 57.9141" stroke="#283FFF" stroke-width="2.5" stroke-linecap="round"/>
<path d="M40.5469 41.1641H58.0469M40.5469 48.6641H53.0469" stroke="#283FFF" stroke-width="2.5" stroke-linecap="round" stroke-linejoin="round"/>
<path d="M60.5469 63.6641C63.3083 63.6641 65.5469 61.4255 65.5469 58.6641C65.5469 55.9026 63.3083 53.6641 60.5469 53.6641C57.7855 53.6641 55.5469 55.9026 55.5469 58.6641C55.5469 61.4255 57.7855 63.6641 60.5469 63.6641Z" stroke="#283FFF" stroke-width="2.5"/>
<path d="M66.7969 64.9141L70.5469 68.6641" stroke="#283FFF" stroke-width="2.5" stroke-linecap="round"/>
<rect x="6" y="7" width="30" height="30" rx="15" fill="#0B1A45"/>
<path d="M20.48 27.5V18.78L18.496 19.308V17.58L21.408 16.3H22.72V27.5H20.48Z" fill="white"/>
</svg>
