<svg width="32" height="32" viewBox="0 0 32 32" fill="none" xmlns="http://www.w3.org/2000/svg">
<path d="M5.16667 14.333H7.66667V20.9999H6C5.77899 20.9999 5.56702 21.0877 5.41074 21.244C5.25446 21.4002 5.16667 21.6122 5.16667 21.8332C5.16667 22.0542 5.25446 22.2662 5.41074 22.4225C5.56702 22.5788 5.77899 22.6666 6 22.6666H26C26.221 22.6666 26.433 22.5788 26.5893 22.4225C26.7455 22.2662 26.8333 22.0542 26.8333 21.8332C26.8333 21.6122 26.7455 21.4002 26.5893 21.244C26.433 21.0877 26.221 20.9999 26 20.9999H24.3333V14.333H26.8333C27.0146 14.3328 27.191 14.2735 27.3355 14.1641C27.4801 14.0546 27.585 13.901 27.6344 13.7265C27.6837 13.5521 27.6748 13.3663 27.609 13.1973C27.5432 13.0283 27.4241 12.8854 27.2698 12.7903L16.4365 6.12344C16.3052 6.04273 16.1541 6 16 6C15.8459 6 15.6948 6.04273 15.5635 6.12344L4.73021 12.7903C4.57586 12.8854 4.45676 13.0283 4.39097 13.1973C4.32518 13.3663 4.31629 13.5521 4.36565 13.7265C4.41501 13.901 4.51992 14.0546 4.66448 14.1641C4.80904 14.2735 4.98535 14.3328 5.16667 14.333ZM9.33333 14.333H12.6667V20.9999H9.33333V14.333ZM17.6667 14.333V20.9999H14.3333V14.333H17.6667ZM22.6667 20.9999H19.3333V14.333H22.6667V20.9999ZM16 7.81099L23.8896 12.6663H8.11042L16 7.81099ZM28.5 25.1666C28.5 25.3877 28.4122 25.5996 28.2559 25.7559C28.0996 25.9122 27.8877 26 27.6667 26H4.33333C4.11232 26 3.90036 25.9122 3.74408 25.7559C3.5878 25.5996 3.5 25.3877 3.5 25.1666C3.5 24.9456 3.5878 24.7337 3.74408 24.5774C3.90036 24.4211 4.11232 24.3333 4.33333 24.3333H27.6667C27.8877 24.3333 28.0996 24.4211 28.2559 24.5774C28.4122 24.7337 28.5 24.9456 28.5 25.1666Z" fill="white"/>
</svg>
