<svg width="33" height="32" viewBox="0 0 33 32" fill="none" xmlns="http://www.w3.org/2000/svg">
<path d="M22.5 2H10.5C9.70435 2 8.94129 2.31607 8.37868 2.87868C7.81607 3.44129 7.5 4.20435 7.5 5V27C7.5 27.7956 7.81607 28.5587 8.37868 29.1213C8.94129 29.6839 9.70435 30 10.5 30H22.5C23.2956 30 24.0587 29.6839 24.6213 29.1213C25.1839 28.5587 25.5 27.7956 25.5 27V5C25.5 4.20435 25.1839 3.44129 24.6213 2.87868C24.0587 2.31607 23.2956 2 22.5 2ZM10.5 4H22.5C22.7652 4 23.0196 4.10536 23.2071 4.29289C23.3946 4.48043 23.5 4.73478 23.5 5V6H9.5V5C9.5 4.73478 9.60536 4.48043 9.79289 4.29289C9.98043 4.10536 10.2348 4 10.5 4ZM22.5 28H10.5C10.2348 28 9.98043 27.8946 9.79289 27.7071C9.60536 27.5196 9.5 27.2652 9.5 27V26H23.5V27C23.5 27.2652 23.3946 27.5196 23.2071 27.7071C23.0196 27.8946 22.7652 28 22.5 28Z" fill="#E08C35"/>
</svg>
