<svg width="170" height="34" viewBox="0 0 170 34" fill="none" xmlns="http://www.w3.org/2000/svg">
<path d="M13.6393 4.08684L11.1803 25.6213C11.1412 25.8413 11.019 25.9586 10.8088 25.9782L7.97826 26.1346C7.81694 26.1346 7.72161 26.0442 7.69227 25.8633L4.69065 10.5936L3.63226 25.6775C3.62248 25.9073 3.49782 26.0246 3.26072 26.0344L0.315317 26.1346C0.105106 26.1346 0 26.0442 0 25.8633L2.47121 4.23105C2.51032 4.03062 2.63253 3.92062 2.84274 3.90107L5.7466 3.74463C5.88103 3.74463 5.96903 3.77152 6.01058 3.82285C6.05458 3.87418 6.0888 3.96462 6.11813 4.08684L9.01954 18.5132L10.0217 4.22861C10.0315 4.0184 10.1586 3.9084 10.4079 3.89862L13.2531 3.74219C13.5098 3.74219 13.6393 3.85707 13.6393 4.08439V4.08684Z" fill="#E08C35"/>
<path d="M28.1338 9.16302L26.2762 25.65C26.2468 25.8968 26.1246 26.0264 25.9046 26.0362L23.0154 26.1364C22.815 26.1168 22.7148 26.0264 22.7148 25.8651L22.9861 23.9194C22.5486 24.6624 22.0695 25.2344 21.5488 25.6353C21.0282 26.0362 20.4465 26.2366 19.7963 26.2366C19.1461 26.2366 18.5961 26.1242 18.1366 25.8993C17.677 25.6744 17.3055 25.3811 17.0146 25.012C16.7238 24.6453 16.4867 24.2054 16.3058 23.6896C15.9709 22.7754 15.8047 21.5239 15.8047 19.9351C15.8047 18.3463 15.9122 17.002 16.1273 15.8971C16.3424 14.7923 16.5307 13.9514 16.692 13.3746C16.8533 12.7977 17.0708 12.2037 17.3422 11.5951C17.6135 10.984 17.9215 10.4756 18.2637 10.065C19.0459 9.13124 20.0309 8.66438 21.2237 8.66438C22.111 8.66438 22.7881 8.87703 23.255 9.2999C23.7218 9.72521 24.1129 10.351 24.4282 11.1796L24.5994 9.2339C24.6189 9.02369 24.7362 8.90881 24.9562 8.8917L27.7599 8.79148C28.0067 8.81103 28.1314 8.93325 28.1314 9.16302H28.1338ZM22.1721 2.25781C22.5999 2.25781 23.1548 2.40936 23.8318 2.7149C24.5089 3.02044 25.032 3.17199 25.4035 3.17199C25.7751 3.17199 26.2322 3.05466 26.7772 2.82245C27.3199 2.5878 27.6816 2.47291 27.865 2.47291C28.0483 2.47291 28.1461 2.56335 28.1656 2.74423L28.2512 3.81729C28.2512 3.99817 28.1363 4.19371 27.909 4.40393C26.8799 5.43298 25.846 5.94874 24.8071 5.94874C24.3696 5.94874 23.8147 5.80208 23.1474 5.50631C22.4801 5.21055 21.9595 5.06389 21.5879 5.06389C21.2164 5.06389 20.752 5.18122 20.1947 5.41343C19.6374 5.64808 19.2781 5.76297 19.1143 5.76297C18.9505 5.76297 18.8625 5.67253 18.843 5.49165L18.7574 4.41859C18.7574 4.23771 18.8625 4.04217 19.0727 3.83195C20.1214 2.78334 21.1553 2.25781 22.1746 2.25781H22.1721ZM19.4125 19.5294C19.4125 21.8075 20.0236 22.9465 21.2433 22.9465C21.7762 22.9465 22.2112 22.7021 22.5437 22.2108C22.8761 21.7195 23.1645 20.7369 23.409 19.2581C23.651 17.7817 23.7732 16.7037 23.7732 16.0267C23.7732 15.3496 23.7683 14.9218 23.7585 14.741C23.7487 14.5601 23.7292 14.3181 23.7023 14.0199C23.6754 13.7217 23.6216 13.4675 23.5458 13.2621C23.4701 13.0568 23.3699 12.8491 23.2452 12.6413C22.9983 12.2306 22.5975 12.0253 22.045 12.0253C21.4926 12.0253 21.0526 12.2697 20.73 12.7611C20.4049 13.2524 20.1531 13.9074 19.9723 14.7263C19.6007 16.4813 19.4149 18.0823 19.4149 19.5294H19.4125Z" fill="#E08C35"/>
<path d="M35.7754 26.2334C34.0839 26.2334 32.8446 25.7249 32.0576 24.7105C31.2705 23.6961 30.877 22.2149 30.877 20.2717C30.877 19.3673 30.9772 18.1842 31.1776 16.7249C31.378 15.2657 31.5638 14.2073 31.7349 13.5424C31.906 12.88 32.1504 12.2323 32.4633 11.5968C32.7786 10.9637 33.1502 10.4406 33.5779 10.03C34.5214 9.11578 35.7998 8.65625 37.4106 8.65625C39.6985 8.65625 41.1798 9.49465 41.8568 11.1739C42.2186 12.071 42.3995 13.1538 42.3995 14.4273C42.3995 15.7008 42.3017 17.0183 42.1062 18.3798C41.9106 19.7437 41.7273 20.7507 41.5562 21.4034C41.3851 22.056 41.1431 22.6964 40.8351 23.3197C40.5247 23.943 40.1556 24.4612 39.7278 24.8719C38.7843 25.7787 37.4668 26.2309 35.7754 26.2309V26.2334ZM38.3004 19.971C38.4055 19.465 38.5399 18.5191 38.7086 17.1332C38.8748 15.7472 38.9579 14.7182 38.9579 14.0509C38.9579 12.4303 38.3712 11.6212 37.2004 11.6212C36.648 11.6212 36.1933 11.8828 35.834 12.4083C35.4772 12.9338 35.1887 13.804 34.9687 15.0261C34.5312 17.5047 34.3112 19.5164 34.3112 21.0612C34.3112 22.606 34.893 23.3784 36.0565 23.3784C36.6089 23.3784 37.0684 23.1144 37.4351 22.584C37.8017 22.056 38.0901 21.1858 38.3004 19.9735V19.971Z" fill="#E08C35"/>
<path d="M54.2984 25.6771C54.2496 25.726 53.7827 25.8287 52.8979 25.9924C52.0106 26.1538 51.1159 26.2344 50.2091 26.2344C48.723 26.2344 47.5839 25.7529 46.7919 24.7898C46 23.8268 45.6064 22.5166 45.6064 20.8569C45.6064 17.9115 45.9584 14.4895 46.6648 10.5908C47.0364 8.49356 47.4935 7.02208 48.0385 6.17145C48.6105 5.28417 49.2974 4.66575 50.0967 4.31377C51.0964 3.87624 52.167 3.65625 53.3061 3.65625C54.4451 3.65625 55.2077 3.68803 55.5939 3.74913C55.9801 3.81024 56.1977 3.84691 56.2441 3.85668C56.3688 3.89579 56.4299 4.01312 56.4299 4.21355L56.0999 6.87297C56.0608 7.11985 55.9655 7.24451 55.8139 7.24451C55.6624 7.24451 55.308 7.20296 54.7555 7.1223C54.2031 7.04163 53.7558 7.00008 53.4112 7.00008C52.497 7.00008 51.8004 7.23229 51.3237 7.69427C50.8471 8.15624 50.4926 9.04353 50.258 10.3537C50.0233 11.6638 49.7985 13.4238 49.5785 15.6285C49.3585 17.8357 49.2485 19.5248 49.2485 20.698C49.2485 22.0815 49.8596 22.7708 51.0793 22.7708C51.4313 22.7708 52.0472 22.7122 52.9247 22.5924C53.8023 22.4726 54.3033 22.414 54.4256 22.414C54.626 22.414 54.7262 22.5337 54.7262 22.7708L54.3962 25.4303C54.3767 25.5451 54.3449 25.6258 54.296 25.6747L54.2984 25.6771Z" fill="white"/>
<path d="M62.8974 26.2353C61.206 26.2353 59.9667 25.7269 59.1796 24.7125C58.3926 23.6981 57.999 22.2168 57.999 20.2736C57.999 19.3692 58.0992 18.1862 58.2997 16.7269C58.5001 15.2676 58.6859 14.2093 58.857 13.5444C59.0281 12.882 59.2725 12.2342 59.5854 11.5987C59.9007 10.9656 60.2722 10.4426 60.7 10.0319C61.6435 9.11774 62.9219 8.6582 64.5327 8.6582C66.8206 8.6582 68.3018 9.49661 68.9789 11.1759C69.3407 12.0729 69.5215 13.1558 69.5215 14.4292C69.5215 15.7027 69.4238 17.0202 69.2282 18.3817C69.0327 19.7456 68.8494 20.7527 68.6783 21.4053C68.5072 22.058 68.2652 22.6984 67.9572 23.3217C67.6468 23.945 67.2777 24.4632 66.8499 24.8738C65.9064 25.7807 64.5889 26.2329 62.8974 26.2329V26.2353ZM65.4224 19.973C65.5275 19.467 65.662 18.521 65.8306 17.1351C65.9968 15.7492 66.0799 14.7201 66.0799 14.0528C66.0799 12.4322 65.4933 11.6232 64.3225 11.6232C63.7701 11.6232 63.3154 11.8847 62.9561 12.4102C62.5992 12.9358 62.3108 13.8059 62.0908 15.0281C61.6533 17.5066 61.4333 19.5183 61.4333 21.0631C61.4333 22.6079 62.015 23.3803 63.1785 23.3803C63.731 23.3803 64.1905 23.1164 64.5571 22.5859C64.9238 22.058 65.2122 21.1878 65.4224 19.9754V19.973Z" fill="white"/>
<path d="M77.7023 9.1632L77.5458 10.4782C78.9195 9.2683 80.2346 8.66211 81.4934 8.66211C83.0944 8.66211 84.1064 9.53962 84.5244 11.2922C84.6393 11.7688 84.6955 12.2186 84.6955 12.6439C84.6955 13.0692 84.6808 13.409 84.6515 13.6656L83.2778 25.6477C83.2387 25.8872 83.1213 26.0143 82.9209 26.0339L80.0317 26.1341C79.8215 26.1146 79.7164 26.0241 79.7164 25.8628L81.0168 14.5383C81.0461 14.2914 81.0608 14.0665 81.0608 13.8661C81.0608 13.0839 80.8774 12.5535 80.5108 12.2724C80.1442 11.9913 79.6797 11.8495 79.1175 11.8495C78.5553 11.8495 77.9687 11.9693 77.3601 12.2064L75.8299 25.6477C75.7908 25.8872 75.6735 26.0143 75.4731 26.0339L72.5839 26.1341C72.3737 26.1146 72.2686 26.0241 72.2686 25.8628L74.1556 9.23408C74.1947 9.02387 74.312 8.90899 74.5124 8.89188L77.3161 8.79166C77.5727 8.80144 77.7023 8.9261 77.7023 9.1632Z" fill="white"/>
<path d="M89.7828 8.84887C90.0028 6.75164 90.1446 5.66637 90.2106 5.59548C90.2766 5.52459 90.3768 5.48304 90.5112 5.47326L93.2415 5.37305C93.4982 5.3926 93.6277 5.51237 93.6277 5.72992C93.4468 6.78831 93.2928 7.8027 93.1706 8.77554L96.5022 8.66066C96.732 8.67043 96.8444 8.7951 96.8444 9.03219L96.4436 11.3054C96.4045 11.5352 96.2871 11.6525 96.0867 11.6623L92.8113 11.7918C92.1636 17.6264 91.8385 20.8431 91.8385 21.442C91.8385 22.5566 92.3151 23.1139 93.2684 23.1139C93.7548 23.1139 94.2266 23.0381 94.6837 22.8842C95.1407 22.7326 95.4267 22.6544 95.5416 22.6544C95.7421 22.6544 95.8423 22.7791 95.8423 23.0259L95.5416 25.5289C95.5221 25.6707 95.4878 25.7758 95.4341 25.8442C95.3827 25.9102 95.1481 25.9909 94.7325 26.0862C94.317 26.1815 93.6106 26.228 92.6084 26.228C91.1394 26.228 90.0541 25.8882 89.3477 25.2063C88.6413 24.5243 88.2893 23.5075 88.2893 22.1533C88.2893 20.7991 88.6657 17.3575 89.4186 11.8309L88.018 11.8872C87.7785 11.8774 87.6611 11.7576 87.6611 11.5303L88.0473 9.22774C88.0767 9.00775 88.1989 8.89531 88.4189 8.88553L89.7779 8.84154L89.7828 8.84887Z" fill="white"/>
<path d="M107.797 12.44L106.267 12.2836C105.028 12.2836 103.989 12.5305 103.15 13.0267L101.735 25.6369C101.696 25.8765 101.579 26.0036 101.378 26.0231L98.4891 26.138C98.2789 26.1185 98.1738 26.028 98.1738 25.8667L100.061 9.23799C100.1 9.02777 100.217 8.91289 100.418 8.89578L103.207 8.79556C103.463 8.80534 103.593 8.93 103.593 9.1671L103.422 10.641C104.033 10.0226 104.622 9.53864 105.194 9.1891C105.766 8.84201 106.34 8.66602 106.917 8.66602C107.494 8.66602 107.934 8.69046 108.24 8.7369C108.44 8.77601 108.54 8.908 108.54 9.13777C108.54 9.79529 108.43 10.773 108.21 12.0685C108.161 12.3154 108.024 12.44 107.795 12.44H107.797Z" fill="white"/>
<path d="M122.209 9.16466L120.351 25.6516C120.322 25.8985 120.2 26.028 119.98 26.0378L117.091 26.138C116.89 26.1185 116.79 26.028 116.79 25.8667L117.061 23.921C116.624 24.6641 116.145 25.2361 115.624 25.6369C115.103 26.0378 114.522 26.2382 113.871 26.2382C113.221 26.2382 112.671 26.1258 112.212 25.9009C111.752 25.676 111.381 25.3827 111.09 25.0136C110.799 24.647 110.562 24.207 110.381 23.6913C110.046 22.7771 109.88 21.5256 109.88 19.9368C109.88 18.348 109.987 17.0036 110.203 15.8988C110.418 14.7939 110.606 13.9531 110.767 13.3762C110.928 12.7994 111.146 12.2054 111.417 11.5968C111.689 10.9857 111.997 10.4773 112.339 10.0666C113.121 9.13288 114.106 8.66602 115.299 8.66602C116.186 8.66602 116.861 8.87867 117.33 9.30154C117.797 9.72685 118.188 10.3526 118.503 11.1812L118.675 9.23554C118.694 9.02533 118.814 8.91045 119.031 8.89334L121.833 8.79312C122.079 8.81267 122.204 8.93489 122.204 9.16466H122.209ZM113.488 19.531C113.488 21.8091 114.099 22.9482 115.318 22.9482C115.851 22.9482 116.286 22.7037 116.619 22.2124C116.951 21.7211 117.24 20.7385 117.484 19.2597C117.729 17.7833 117.848 16.7054 117.848 16.0283C117.848 15.3512 117.843 14.9235 117.834 14.7426C117.824 14.5617 117.804 14.3197 117.777 14.0215C117.748 13.7209 117.697 13.4691 117.621 13.2638C117.545 13.0585 117.445 12.8507 117.32 12.6429C117.074 12.2323 116.673 12.027 116.12 12.027C115.568 12.027 115.128 12.2714 114.805 12.7627C114.48 13.254 114.228 13.9091 114.047 14.7279C113.676 16.483 113.49 18.084 113.49 19.531H113.488Z" fill="white"/>
<path d="M126.853 8.84887C127.073 6.75164 127.215 5.66637 127.281 5.59548C127.347 5.52459 127.447 5.48304 127.582 5.47326L130.312 5.37305C130.568 5.3926 130.698 5.51237 130.698 5.72992C130.517 6.78831 130.363 7.8027 130.241 8.77554L133.573 8.66066C133.802 8.67043 133.915 8.7951 133.915 9.03219L133.514 11.3054C133.475 11.5352 133.357 11.6525 133.157 11.6623L129.882 11.7918C129.234 17.6264 128.909 20.8431 128.909 21.442C128.909 22.5566 129.385 23.1139 130.339 23.1139C130.825 23.1139 131.297 23.0381 131.754 22.8842C132.211 22.7326 132.497 22.6544 132.612 22.6544C132.812 22.6544 132.913 22.7791 132.913 23.0259L132.612 25.5289C132.592 25.6707 132.558 25.7758 132.504 25.8442C132.453 25.9102 132.218 25.9909 131.803 26.0862C131.387 26.1815 130.681 26.228 129.679 26.228C128.21 26.228 127.124 25.8882 126.418 25.2063C125.712 24.5243 125.36 23.5075 125.36 22.1533C125.36 20.7991 125.736 17.3575 126.489 11.8309L125.088 11.8872C124.849 11.8774 124.731 11.7576 124.731 11.5303L125.118 9.22774C125.147 9.00775 125.269 8.89531 125.489 8.88553L126.848 8.84154L126.853 8.84887Z" fill="white"/>
<path d="M136.183 23.3965C135.958 22.8294 135.806 22.2672 135.726 21.7099C135.645 21.1526 135.604 20.3875 135.604 19.4147C135.604 18.4418 135.709 17.2417 135.919 15.8117C136.615 11.0453 138.779 8.66211 142.411 8.66211C143.812 8.66211 144.885 9.14364 145.628 10.1067C146.371 11.0698 146.742 12.3188 146.742 13.8538C146.742 15.3889 146.647 16.8799 146.456 18.3294C146.427 18.586 146.28 18.7205 146.014 18.7303L138.95 18.9723C138.94 19.114 138.935 19.3071 138.935 19.5442C138.935 20.6222 139.123 21.4752 139.5 22.1034C139.876 22.7316 140.446 23.0469 141.208 23.0469C141.971 23.0469 142.68 22.9345 143.332 22.7096C143.985 22.4847 144.369 22.3747 144.484 22.3747C144.599 22.3747 144.699 22.4139 144.784 22.4896C144.87 22.5654 144.914 22.6705 144.914 22.8049L144.628 25.3201C144.618 25.4619 144.591 25.5572 144.55 25.5988C144.508 25.6428 144.423 25.6868 144.3 25.7357C143.147 26.0706 142.037 26.2368 140.969 26.2368C139.901 26.2368 139.072 26.1072 138.48 25.8506C137.889 25.5939 137.415 25.2615 137.058 24.8557C136.701 24.45 136.41 23.9636 136.185 23.3965H136.183ZM139.292 15.384L139.162 16.2982L142.895 16.1124C143.056 16.1026 143.161 16.0733 143.21 16.0268C143.352 15.8851 143.425 15.4915 143.425 14.8462C143.425 14.2009 143.403 13.7512 143.362 13.4872C143.32 13.2257 143.244 12.9568 143.139 12.6781C142.919 12.067 142.545 11.764 142.017 11.764C141.489 11.764 141.071 11.8544 140.766 12.0353C140.089 12.4557 139.598 13.5703 139.294 15.3815L139.292 15.384Z" fill="white"/>
<path d="M154.904 9.16412L153.047 25.6511C153.027 25.7855 152.995 25.8808 152.947 25.937C152.898 25.9933 152.807 26.0275 152.675 26.0373L149.801 26.1375C149.59 26.1179 149.485 26.0275 149.485 25.8662L151.372 9.23745C151.411 9.02724 151.529 8.91235 151.729 8.89524L154.518 8.79503C154.775 8.81458 154.904 8.9368 154.904 9.16656V9.16412ZM153.318 7.23311C152.727 7.23311 152.255 7.04734 151.903 6.6758C151.551 6.30426 151.372 5.82518 151.372 5.23854C151.372 4.6519 151.609 4.12882 152.081 3.66684C152.553 3.20487 153.083 2.97266 153.675 2.97266C154.266 2.97266 154.746 3.15842 155.112 3.52996C155.479 3.9015 155.662 4.38058 155.662 4.96722C155.662 5.55386 155.418 6.07694 154.934 6.53892C154.447 7.0009 153.91 7.23311 153.318 7.23311Z" fill="white"/>
<path d="M157.95 32.485C157.258 31.7933 156.911 30.9598 156.911 29.9869C156.911 29.0141 157.258 28.1879 157.95 27.5108C158.642 26.8337 159.475 26.494 160.448 26.494C161.421 26.494 162.247 26.8337 162.924 27.5108C163.601 28.1903 163.941 29.0141 163.941 29.9869C163.941 30.9598 163.601 31.7933 162.924 32.485C162.245 33.1768 161.421 33.5238 160.448 33.5238C159.475 33.5238 158.642 33.1768 157.95 32.485ZM163.191 0.928842L170 0L163.587 23.0426H159.827L163.188 0.928842H163.191Z" fill="#E08C35"/>
</svg>
