<svg width="30" height="30" viewBox="0 0 30 30" fill="none" xmlns="http://www.w3.org/2000/svg">
<path d="M17.6773 0.935741L14.4907 28.8366C14.4416 29.1197 14.2793 29.2745 14.0074 29.3009L10.3376 29.5048C10.1261 29.5048 10.0053 29.3878 9.96755 29.1537L6.0787 9.37017L4.70816 28.9158C4.69683 29.2103 4.53448 29.3651 4.22488 29.3802L0.407764 29.5086C0.135921 29.5086 0 29.3916 0 29.1575L3.20925 1.12074C3.25833 0.860232 3.42068 0.720539 3.69253 0.69411L7.45301 0.490234C7.62669 0.490234 7.73996 0.524214 7.79659 0.592172C7.85322 0.660131 7.89853 0.773396 7.93629 0.935741L11.6968 19.6282L12.9918 1.12074C13.0031 0.848905 13.1693 0.705437 13.4902 0.69411L17.1752 0.490234C17.5074 0.490234 17.6735 0.637478 17.6735 0.935741H17.6773Z" fill="white"/>
<path d="M19.5714 28.6025C18.9711 28.0022 18.6729 27.2811 18.6729 26.4391C18.6729 25.5972 18.9711 24.8836 19.5714 24.2947C20.1718 23.7095 20.8929 23.415 21.7349 23.415C22.5768 23.415 23.2904 23.7095 23.8794 24.2947C24.4646 24.8836 24.7591 25.5972 24.7591 26.4391C24.7591 27.2811 24.4646 28.0022 23.8794 28.6025C23.2904 29.2028 22.5768 29.501 21.7349 29.501C20.8929 29.501 20.1718 29.2028 19.5714 28.6025ZM24.1059 1.29441L29.9996 0.490234L24.4495 20.4286H21.1949L24.1059 1.29441Z" fill="#E08C35"/>
</svg>
