<svg width="52" height="53" viewBox="0 0 52 53" fill="none" xmlns="http://www.w3.org/2000/svg">
<path d="M35.2954 28.1127C36.1382 26.9012 36.647 25.4891 36.7705 24.0184C36.8941 22.5478 36.6281 21.0706 35.9993 19.7355C35.3704 18.4004 34.401 17.2544 33.1885 16.4131C31.9761 15.5717 30.5633 15.0646 29.0926 14.9427C27.6218 14.8209 26.1449 15.0887 24.8105 15.7191C23.4761 16.3495 22.3314 17.3202 21.4914 18.5337C20.6515 19.7472 20.146 21.1605 20.0259 22.6314C19.9058 24.1023 20.1753 25.5789 20.8073 26.9125" stroke="white" stroke-width="1.75" stroke-linecap="round" stroke-linejoin="round"/>
<path d="M28.4008 19.7119C27.0746 19.7119 26.0005 20.5184 26.0005 21.5121C26.0005 22.5058 27.0746 23.3123 28.4008 23.3123C29.7269 23.3123 30.8011 24.1188 30.8011 25.1125C30.8011 26.1062 29.7269 26.9127 28.4008 26.9127M28.4008 19.7119C29.4449 19.7119 30.3354 20.2123 30.6642 20.912M28.4008 19.7119V18.5117M28.4008 26.9127C27.3567 26.9127 26.4661 26.4122 26.1373 25.7126M28.4008 26.9127V28.1128M15.1992 29.313H18.0736C18.4264 29.313 18.7744 29.3922 19.0901 29.5458L21.5408 30.7316C21.8564 30.884 22.2044 30.9632 22.5585 30.9632H23.809C25.0188 30.9632 26.0005 31.9125 26.0005 33.0838C26.0005 33.1318 25.9681 33.1726 25.9213 33.1858L22.8717 34.0295C22.3245 34.1807 21.741 34.1278 21.2299 33.8807L18.61 32.6134M26.0005 32.3133L31.5127 30.6199C31.9926 30.4727 32.5068 30.4808 32.9818 30.6431C33.4568 30.8054 33.8684 31.1136 34.1579 31.5237C34.6007 32.1357 34.4207 33.0142 33.775 33.3863L24.7559 38.5913C24.4739 38.7545 24.1616 38.8585 23.8381 38.8971C23.5146 38.9357 23.1866 38.908 22.8741 38.8157L15.1992 36.5378" stroke="white" stroke-width="1.75" stroke-linecap="round" stroke-linejoin="round"/>
</svg>
