<svg width="30" height="30" viewBox="0 0 30 30" fill="none" xmlns="http://www.w3.org/2000/svg">
<path d="M17.6778 0.935741L14.4912 28.8366C14.4421 29.1197 14.2798 29.2745 14.0079 29.3009L10.3381 29.5048C10.1266 29.5048 10.0058 29.3878 9.96804 29.1537L6.07919 9.37017L4.70865 28.9158C4.69732 29.2103 4.53497 29.3651 4.22537 29.3802L0.408252 29.5086C0.136409 29.5086 0.000488281 29.3916 0.000488281 29.1575L3.20974 1.12074C3.25882 0.860232 3.42117 0.720539 3.69301 0.69411L7.4535 0.490234C7.62718 0.490234 7.74045 0.524214 7.79708 0.592172C7.85371 0.660131 7.89902 0.773396 7.93678 0.935741L11.6973 19.6282L12.9923 1.12074C13.0036 0.848905 13.1697 0.705437 13.4907 0.69411L17.1756 0.490234C17.5079 0.490234 17.674 0.637478 17.674 0.935741H17.6778Z" fill="white"/>
<path d="M19.5724 28.6025C18.9721 28.0022 18.6738 27.2811 18.6738 26.4391C18.6738 25.5972 18.9721 24.8836 19.5724 24.2947C20.1727 23.7095 20.8939 23.415 21.7358 23.415C22.5778 23.415 23.2914 23.7095 23.8804 24.2947C24.4656 24.8836 24.7601 25.5972 24.7601 26.4391C24.7601 27.2811 24.4656 28.0022 23.8804 28.6025C23.2914 29.2028 22.5778 29.501 21.7358 29.501C20.8939 29.501 20.1727 29.2028 19.5724 28.6025ZM24.1069 1.29441L30.0006 0.490234L24.4505 20.4286H21.1959L24.1069 1.29441Z" fill="white"/>
</svg>
