<svg width="16" height="17" viewBox="0 0 16 17" fill="none" xmlns="http://www.w3.org/2000/svg">
<path d="M12.6995 3.77402C12.0883 3.15676 11.3602 2.66733 10.5579 2.33426C9.75554 2.00119 8.89493 1.83114 8.02621 1.83402C4.38621 1.83402 1.41954 4.80069 1.41954 8.44069C1.41954 9.60735 1.72621 10.7407 2.29954 11.7407L1.36621 15.1674L4.86621 14.2474C5.83288 14.774 6.91954 15.054 8.02621 15.054C11.6662 15.054 14.6329 12.0874 14.6329 8.44735C14.6329 6.68069 13.9462 5.02069 12.6995 3.77402ZM8.02621 13.934C7.03954 13.934 6.07288 13.6674 5.22621 13.1674L5.02621 13.0474L2.94621 13.594L3.49954 11.5674L3.36621 11.3607C2.81791 10.4854 2.52683 9.47354 2.52621 8.44069C2.52621 5.41402 4.99288 2.94735 8.01954 2.94735C9.48621 2.94735 10.8662 3.52069 11.8995 4.56069C12.4113 5.06993 12.8168 5.67572 13.0926 6.34291C13.3684 7.0101 13.509 7.72541 13.5062 8.44735C13.5195 11.474 11.0529 13.934 8.02621 13.934ZM11.0395 9.82735C10.8729 9.74735 10.0595 9.34735 9.91288 9.28735C9.75954 9.23402 9.65288 9.20736 9.53954 9.36735C9.42621 9.53402 9.11288 9.90736 9.01954 10.014C8.92621 10.1274 8.82621 10.1407 8.65954 10.054C8.49288 9.97402 7.95954 9.79402 7.33288 9.23402C6.83954 8.79402 6.51288 8.25402 6.41288 8.08735C6.31954 7.92069 6.39954 7.83402 6.48621 7.74735C6.55954 7.67402 6.65288 7.55402 6.73288 7.46069C6.81288 7.36735 6.84621 7.29402 6.89954 7.18735C6.95288 7.07402 6.92621 6.98069 6.88621 6.90069C6.84621 6.82069 6.51288 6.00735 6.37954 5.67402C6.24621 5.35402 6.10621 5.39402 6.00621 5.38735H5.68621C5.57288 5.38735 5.39954 5.42735 5.24621 5.59402C5.09954 5.76069 4.67288 6.16069 4.67288 6.97402C4.67288 7.78735 5.26621 8.57402 5.34621 8.68069C5.42621 8.79402 6.51288 10.4607 8.16621 11.174C8.55954 11.3474 8.86621 11.4474 9.10621 11.5207C9.49954 11.6474 9.85954 11.6274 10.1462 11.5874C10.4662 11.5407 11.1262 11.1874 11.2595 10.8007C11.3995 10.414 11.3995 10.0874 11.3529 10.014C11.3062 9.94069 11.2062 9.90735 11.0395 9.82735Z" fill="white"/>
</svg>
