<svg width="98" height="90" viewBox="0 0 98 90" fill="none" xmlns="http://www.w3.org/2000/svg">
<path d="M34.7884 15.9141C40.9468 5.2474 56.3429 5.2474 62.5013 15.9141L87.1829 58.6641C93.2451 69.164 85.8806 82.2478 73.9007 82.6543L73.3265 82.6641V81.6641C84.8735 81.6641 92.0902 69.1641 86.3167 59.1641L61.6351 16.4141C55.8615 6.41415 41.4281 6.41415 35.6546 16.4141L10.973 59.1641C5.19945 69.1641 12.4162 81.6641 23.9632 81.6641V82.6641L23.389 82.6543C11.5992 82.2543 4.27973 69.5762 9.82842 59.166L10.1067 58.6641L34.7884 15.9141ZM73.3265 81.6641V82.6641H23.9632V81.6641H73.3265Z" fill="#D6EAFF"/>
<path d="M20.4697 88.8386L20.9238 88.8718C21.3793 88.9004 21.8403 88.9148 22.3066 88.9148V89.9148L21.5186 89.9011C20.797 89.8767 20.0878 89.8169 19.3916 89.7273L19.4727 88.7556L20.4697 88.8386ZM24.1963 88.9148V89.9148H22.3066V88.9148H24.1963ZM25.1963 88.9148V89.9148H24.1963V88.9148H25.1963ZM27.9736 88.9148V89.9148H26.9736V88.9148H27.9736ZM31.751 88.9148V89.9148H27.9736V88.9148H31.751ZM32.751 88.9148V89.9148H31.751V88.9148H32.751ZM35.5283 88.9148V89.9148H34.5283V88.9148H35.5283ZM39.3057 88.9148V89.9148H35.5283V88.9148H39.3057ZM40.3057 88.9148V89.9148H39.3057V88.9148H40.3057ZM43.084 88.9148V89.9148H42.084V88.9148H43.084ZM46.8613 88.9148V89.9148H43.084V88.9148H46.8613ZM47.8613 88.9148V89.9148H46.8613V88.9148H47.8613ZM50.6387 88.9148V89.9148H49.6387V88.9148H50.6387ZM54.416 88.9148V89.9148H50.6387V88.9148H54.416ZM55.416 88.9148V89.9148H54.416V88.9148H55.416ZM58.1943 88.9148V89.9148H57.1943V88.9148H58.1943ZM61.9717 88.9148V89.9148H58.1943V88.9148H61.9717ZM62.9717 88.9148V89.9148H61.9717V88.9148H62.9717ZM65.749 88.9148V89.9148H64.749V88.9148H65.749ZM69.5264 88.9148V89.9148H65.749V88.9148H69.5264ZM70.5264 88.9148V89.9148H69.5264V88.9148H70.5264ZM73.3037 88.9148V89.9148H72.3037V88.9148H73.3037ZM75.1934 88.9148V89.9148H73.3037V88.9148H75.1934ZM78.1074 89.7273C77.4115 89.8168 76.7027 89.8767 75.9814 89.9011L75.1934 89.9148V88.9148C75.8153 88.9148 76.4278 88.889 77.0303 88.8386L78.0273 88.7556L78.1074 89.7273ZM13.4199 86.9793L13.832 87.1648C14.6613 87.5287 15.5224 87.8416 16.4131 88.0974L16.8604 88.2205L17.8271 88.4744L17.5791 89.4168C15.6261 88.9978 13.7926 88.3247 12.1025 87.4402L12.5137 86.5574L13.4199 86.9793ZM85.3965 87.4402C83.7063 88.3246 81.873 88.9979 79.9199 89.4168L79.6729 88.4744L80.6396 88.2205L81.0869 88.0974C82.1259 87.799 83.1252 87.4236 84.0801 86.9793L84.9863 86.5574L85.3965 87.4402ZM7.45898 82.7839L7.10352 83.1355L7.10449 83.1365L7.45898 82.7839C8.31668 83.6475 9.2519 84.4401 10.2559 85.1472L11.0732 85.7224L10.5117 86.5193C8.85495 85.4633 7.36192 84.1956 6.06152 82.7625L6.75488 82.075L7.45898 82.7839ZM91.4375 82.7625C90.137 84.1956 88.6442 85.4633 86.9873 86.5193L86.4268 85.7224L87.2441 85.1472C88.2481 84.4401 89.1833 83.6475 90.041 82.7839L90.7451 82.075L91.4375 82.7625ZM3.27734 76.7986L3.47656 77.2127C3.95169 78.1716 4.4984 79.0949 5.11133 79.9724L5.68359 80.7918L4.88281 81.3503C3.69688 79.8043 2.71653 78.1067 1.96875 76.3074L2.85254 75.8933L3.27734 76.7986ZM95.5303 76.3074C94.7824 78.1067 93.8022 79.8043 92.6162 81.3503L91.8164 80.7918L92.3887 79.9714L92.6475 79.5935C93.2415 78.703 93.768 77.7679 94.2227 76.7986L94.6475 75.8933L95.5303 76.3074ZM1.36035 69.7586L1.40723 70.2166C1.5285 71.2824 1.73149 72.3338 2.01172 73.3611L2.27441 74.3259L1.33301 74.5828C0.740019 72.7406 0.3861 70.8141 0.297852 68.8513L1.26855 68.7625L1.36035 69.7586ZM97.2012 68.8513C97.1129 70.8142 96.7591 72.7405 96.166 74.5828L95.2256 74.3259L95.4883 73.3611C95.8086 72.1869 96.0279 70.9814 96.1396 69.7586L96.2314 68.7625L97.2012 68.8513ZM2.25488 61.5359L1.99316 62.5017L1.87598 62.9509C1.61621 63.9998 1.44298 65.0525 1.35156 66.1013L1.26465 67.0984L0.292969 67.0134C0.369933 65.1072 0.701712 63.1818 1.31348 61.28L2.25488 61.5359ZM96.1855 61.28C96.7974 63.1819 97.1291 65.1071 97.2061 67.0134L96.2354 67.0984L96.1484 66.1013L96.1045 65.6521C96.006 64.7521 95.8467 63.8501 95.624 62.9509L95.5068 62.5007L95.2451 61.5359L96.1855 61.28ZM5.55273 54.9285L4.10938 57.4343C3.79888 57.9735 3.51485 58.5178 3.25781 59.0652L2.83301 59.9705L1.9502 59.5554C2.31767 58.6729 2.74585 57.7972 3.24219 56.9353L4.68457 54.4285L5.55273 54.9285ZM94.2578 56.9353C94.7541 57.7971 95.1814 58.673 95.5488 59.5554L94.667 59.9705L94.2422 59.0652L94.0439 58.655C93.9088 58.3823 93.7676 58.1103 93.6191 57.8396L93.3906 57.4343L91.9473 54.9285L92.8145 54.4285L94.2578 56.9353ZM9.33008 48.3689L6.44336 53.3816L5.57617 52.8816L8.46289 47.8689L9.33008 48.3689ZM91.9229 52.8816L91.0566 53.3816L88.1699 48.3689L89.0361 47.8689L91.9229 52.8816ZM13.1074 41.8093L10.7197 45.9558L10.2207 46.822L9.35352 46.322L12.2402 41.3103L13.1074 41.8093ZM88.1455 46.322L87.2793 46.822L86.7803 45.9558L87.2139 45.7058L87.3281 45.6404L86.7803 45.9558L84.3926 41.8093L85.2588 41.3103L88.1455 46.322ZM16.8848 35.2498L13.998 40.2625L13.1309 39.7625L16.0176 34.7498L16.8848 35.2498ZM84.3682 39.7625L83.502 40.2625L80.6152 35.2498L81.4814 34.7498L84.3682 39.7625ZM20.6631 28.6902L17.7754 33.7029L16.9092 33.2039L19.7959 28.1902L20.6631 28.6902ZM80.5898 33.2039L79.7246 33.7029L76.8369 28.6902L77.7031 28.1902L80.5898 33.2039ZM23.0742 22.4988L23.5078 22.7478L23.9414 22.9978L21.5537 27.1433L20.6865 26.6433L23.0742 22.4988ZM74.4248 22.4988L76.8125 26.6433L75.9463 27.1433L73.5586 22.9978L73.9922 22.7478L74.4248 22.4988ZM24.4404 22.1306L23.9414 22.9978L23.0742 22.4988L23.5732 21.6316L24.4404 22.1306ZM74.4248 22.4988L73.9922 22.7478L73.5586 22.9978L73.0596 22.1306L73.9258 21.6316L74.4248 22.4988ZM28.2178 15.5711L25.3311 20.5837L24.4639 20.0847L24.9629 19.2185L27.3506 15.072L28.2178 15.5711ZM72.5361 19.2175L73.0352 20.0847L72.1689 20.5837L69.2822 15.5711L70.1484 15.072L72.5361 19.2175ZM31.126 9.67652L31.5371 9.96168C31.2783 10.335 31.0279 10.7199 30.7881 11.117L30.5518 11.5183L29.1084 14.0252L28.2412 13.5252L28.7402 12.6589L29.6855 11.0193C30.0104 10.4552 30.3558 9.91408 30.7168 9.39332L31.126 9.67652ZM66.7822 9.39332C67.1433 9.91422 67.4895 10.4551 67.8145 11.0193L68.7578 12.6589L69.2578 13.5252L68.3916 14.0252L66.9482 11.5183C66.6372 10.9783 66.3079 10.4595 65.9629 9.96168L66.374 9.67652L66.7822 9.39332ZM32.1064 9.13941L31.5371 9.96168L31.126 9.67652L30.7168 9.39332C30.908 9.1174 31.1039 8.84751 31.3047 8.58375L32.1064 9.13941ZM66.1943 8.58375C66.3951 8.84752 66.591 9.11739 66.7822 9.39332L66.374 9.67652L65.9629 9.96168L65.3936 9.13941L66.1943 8.58375ZM36.6758 4.77516C35.6894 5.46756 34.7521 6.25502 33.8779 7.13844L33.1748 7.84938L32.4814 7.16383C33.5878 5.93789 34.8035 4.86904 36.1016 3.95777L36.6758 4.77516ZM61.3975 3.95777C62.6956 4.86902 63.9112 5.93789 65.0176 7.16383L64.3252 7.84938L63.6221 7.13844L63.291 6.81227C62.5125 6.06013 61.6873 5.38105 60.8242 4.77516L61.3975 3.95777ZM37.4941 4.19996L36.6758 4.77516L36.1016 3.95777C36.3754 3.76556 36.6537 3.58032 36.9346 3.40211L37.4941 4.19996ZM60.5645 3.40211C60.8453 3.58032 61.1236 3.76556 61.3975 3.95777L60.8242 4.77516L60.0059 4.19996L60.5645 3.40211ZM39.8496 2.94605L38.9424 3.36695L38.5322 2.48121C38.8285 2.32704 39.1278 2.18059 39.4297 2.04078L39.8496 2.94605ZM58.0693 2.04078C58.3712 2.18058 58.6706 2.32705 58.9668 2.48121L58.5576 3.36695L57.6504 2.94605L58.0693 2.04078ZM44.2656 1.44898L43.2988 1.70387L42.8584 1.82594C41.8326 2.12081 40.8261 2.49385 39.8496 2.94605L39.4297 2.04078C40.9052 1.35741 42.4442 0.84479 44.0156 0.504649L44.2656 1.44898ZM53.4834 0.504649C55.0549 0.844727 56.5938 1.35747 58.0693 2.04078L57.8945 2.41969L57.6504 2.94605C56.6739 2.49385 55.6674 2.12081 54.6416 1.82594L54.2012 1.70387L53.2344 1.44898L53.4834 0.504649ZM45.834 0.190195C47.7682 -0.0634416 49.7308 -0.0633553 51.665 0.190195L51.582 1.16285L50.585 1.07691L50.127 1.04273C49.0573 0.973938 47.9832 0.98519 46.915 1.07691L45.918 1.16285L45.834 0.190195Z" fill="#D6EAFF"/>
<path d="M34.7886 15.9141C40.947 5.2474 56.343 5.2474 62.5014 15.9141L87.1832 58.6641C93.3416 69.3307 85.6436 82.6641 73.3268 82.6641H23.9633C11.6465 82.6641 3.94851 69.3307 10.1069 58.6641L34.7886 15.9141Z" fill="#D6EAFF"/>
<path d="M41.0215 62.5449C40.6802 62.66 40.3208 62.7148 39.96 62.7061V62.7041C39.1432 62.6973 38.4034 62.4195 37.7832 61.8584L37.7715 61.8477L37.7607 61.8379C37.1383 61.2466 36.8097 60.4878 36.8096 59.6191C36.8096 59.2407 36.8747 58.883 36.9971 58.5498C36.6791 58.6736 36.3338 58.75 35.959 58.75C35.1063 58.7499 34.2953 58.4301 33.6973 57.7324L33.6982 57.7305C33.1566 57.1388 32.8535 56.402 32.8535 55.5684C32.8535 55.4241 32.8621 55.283 32.8799 55.1455L31.998 56.0293L31.1143 55.1348C29.2476 53.2459 28.2908 50.4686 28.0742 46.9844L28.0459 46.3145C27.9773 42.9908 28.9749 40.0338 31.04 37.54L31.0791 37.4932L31.123 37.4502C33.5803 35.0136 36.5558 33.7501 39.9902 33.75C43.0318 33.75 45.6958 34.7317 47.9219 36.6436L48.6729 36.1045C50.7752 34.5908 53.2095 33.8438 55.9092 33.8438C57.4772 33.8438 59.1352 34.2566 60.8691 35.0615C62.5877 35.8409 64.0103 36.7885 65.0869 37.9297L65.1211 37.9658L65.1523 38.0039C67.2978 40.6702 68.1877 43.7888 67.8799 47.2783L67.8789 47.2861C67.5598 50.6758 66.4271 53.4732 64.3486 55.4951L64.3496 55.4961L50.1182 69.7275C49.5011 70.3446 48.7203 70.6191 47.9033 70.6191C47.0726 70.6191 46.3153 70.3357 45.707 69.7275V69.7266C45.4143 69.4363 45.1834 69.0898 45.0303 68.707C44.8808 68.3334 44.8088 67.9334 44.8164 67.5312H44.8154C44.8154 67.179 44.8692 66.8344 44.9766 66.5059C44.6452 66.6169 44.2972 66.6688 43.9473 66.6611V66.6621C43.9429 66.6621 43.938 66.6611 43.9336 66.6611C43.9223 66.6608 43.9107 66.6616 43.8994 66.6611V66.6592C43.0873 66.6486 42.3467 66.3682 41.75 65.7715V65.7705C41.4573 65.4803 41.2273 65.1328 41.0742 64.75C40.9248 64.3765 40.8528 63.9771 40.8604 63.5752H40.8594C40.8594 63.2213 40.9131 62.8748 41.0215 62.5449Z" stroke="#283FFF" stroke-width="2.5"/>
<rect x="4" y="7" width="30" height="30" rx="15" fill="#0B1A45"/>
<path d="M19.724 27.5V25.468H14.22V23.756L19.436 16.3H21.884V23.596H23.34V25.468H21.884V27.5H19.724ZM16.524 23.596H19.868V18.684L16.524 23.596Z" fill="white"/>
</svg>
