<svg width="98" height="90" viewBox="0 0 98 90" fill="none" xmlns="http://www.w3.org/2000/svg">
<path d="M34.7886 15.9141C40.947 5.2474 56.343 5.2474 62.5014 15.9141L87.1832 58.6641C93.3416 69.3307 85.6436 82.6641 73.3268 82.6641H23.9633C11.6465 82.6641 3.94851 69.3307 10.1069 58.6641L34.7886 15.9141Z" fill="#D6EAFF"/>
<path d="M20.4697 88.8386L20.9238 88.8718C21.3793 88.9004 21.8403 88.9148 22.3066 88.9148V89.9148L21.5186 89.9011C20.797 89.8767 20.0878 89.8169 19.3916 89.7273L19.4727 88.7556L20.4697 88.8386ZM24.1963 88.9148V89.9148H22.3066V88.9148H24.1963ZM25.1963 88.9148V89.9148H24.1963V88.9148H25.1963ZM27.9736 88.9148V89.9148H26.9736V88.9148H27.9736ZM31.751 88.9148V89.9148H27.9736V88.9148H31.751ZM32.751 88.9148V89.9148H31.751V88.9148H32.751ZM35.5283 88.9148V89.9148H34.5283V88.9148H35.5283ZM39.3057 88.9148V89.9148H35.5283V88.9148H39.3057ZM40.3057 88.9148V89.9148H39.3057V88.9148H40.3057ZM43.084 88.9148V89.9148H42.084V88.9148H43.084ZM46.8613 88.9148V89.9148H43.084V88.9148H46.8613ZM47.8613 88.9148V89.9148H46.8613V88.9148H47.8613ZM50.6387 88.9148V89.9148H49.6387V88.9148H50.6387ZM54.416 88.9148V89.9148H50.6387V88.9148H54.416ZM55.416 88.9148V89.9148H54.416V88.9148H55.416ZM58.1943 88.9148V89.9148H57.1943V88.9148H58.1943ZM61.9717 88.9148V89.9148H58.1943V88.9148H61.9717ZM62.9717 88.9148V89.9148H61.9717V88.9148H62.9717ZM65.749 88.9148V89.9148H64.749V88.9148H65.749ZM69.5264 88.9148V89.9148H65.749V88.9148H69.5264ZM70.5264 88.9148V89.9148H69.5264V88.9148H70.5264ZM73.3037 88.9148V89.9148H72.3037V88.9148H73.3037ZM75.1934 88.9148V89.9148H73.3037V88.9148H75.1934ZM78.1074 89.7273C77.4115 89.8168 76.7027 89.8767 75.9814 89.9011L75.1934 89.9148V88.9148C75.8153 88.9148 76.4278 88.889 77.0303 88.8386L78.0273 88.7556L78.1074 89.7273ZM13.4199 86.9793L13.832 87.1648C14.6613 87.5287 15.5224 87.8416 16.4131 88.0974L16.8604 88.2205L17.8271 88.4744L17.5791 89.4168C15.6261 88.9978 13.7926 88.3247 12.1025 87.4402L12.5137 86.5574L13.4199 86.9793ZM85.3965 87.4402C83.7063 88.3246 81.873 88.9979 79.9199 89.4168L79.6729 88.4744L80.6396 88.2205L81.0869 88.0974C82.1259 87.799 83.1252 87.4236 84.0801 86.9793L84.9863 86.5574L85.3965 87.4402ZM7.45898 82.7839L7.10352 83.1355L7.10449 83.1365L7.45898 82.7839C8.31668 83.6475 9.2519 84.4401 10.2559 85.1472L11.0732 85.7224L10.5117 86.5193C8.85495 85.4633 7.36192 84.1956 6.06152 82.7625L6.75488 82.075L7.45898 82.7839ZM91.4375 82.7625C90.137 84.1956 88.6442 85.4633 86.9873 86.5193L86.4268 85.7224L87.2441 85.1472C88.2481 84.4401 89.1833 83.6475 90.041 82.7839L90.7451 82.075L91.4375 82.7625ZM3.27734 76.7986L3.47656 77.2127C3.95169 78.1716 4.4984 79.0949 5.11133 79.9724L5.68359 80.7918L4.88281 81.3503C3.69688 79.8043 2.71653 78.1067 1.96875 76.3074L2.85254 75.8933L3.27734 76.7986ZM95.5303 76.3074C94.7824 78.1067 93.8022 79.8043 92.6162 81.3503L91.8164 80.7918L92.3887 79.9714L92.6475 79.5935C93.2415 78.703 93.768 77.7679 94.2227 76.7986L94.6475 75.8933L95.5303 76.3074ZM1.36035 69.7586L1.40723 70.2166C1.5285 71.2824 1.73149 72.3338 2.01172 73.3611L2.27441 74.3259L1.33301 74.5828C0.740019 72.7406 0.3861 70.8141 0.297852 68.8513L1.26855 68.7625L1.36035 69.7586ZM97.2012 68.8513C97.1129 70.8142 96.7591 72.7405 96.166 74.5828L95.2256 74.3259L95.4883 73.3611C95.8086 72.1869 96.0279 70.9814 96.1396 69.7586L96.2314 68.7625L97.2012 68.8513ZM2.25488 61.5359L1.99316 62.5017L1.87598 62.9509C1.61621 63.9998 1.44298 65.0525 1.35156 66.1013L1.26465 67.0984L0.292969 67.0134C0.369933 65.1072 0.701712 63.1818 1.31348 61.28L2.25488 61.5359ZM96.1855 61.28C96.7974 63.1819 97.1291 65.1071 97.2061 67.0134L96.2354 67.0984L96.1484 66.1013L96.1045 65.6521C96.006 64.7521 95.8467 63.8501 95.624 62.9509L95.5068 62.5007L95.2451 61.5359L96.1855 61.28ZM5.55273 54.9285L4.10938 57.4343C3.79888 57.9735 3.51485 58.5178 3.25781 59.0652L2.83301 59.9705L1.9502 59.5554C2.31767 58.6729 2.74585 57.7972 3.24219 56.9353L4.68457 54.4285L5.55273 54.9285ZM94.2578 56.9353C94.7541 57.7971 95.1814 58.673 95.5488 59.5554L94.667 59.9705L94.2422 59.0652L94.0439 58.655C93.9088 58.3823 93.7676 58.1103 93.6191 57.8396L93.3906 57.4343L91.9473 54.9285L92.8145 54.4285L94.2578 56.9353ZM9.33008 48.3689L6.44336 53.3816L5.57617 52.8816L8.46289 47.8689L9.33008 48.3689ZM91.9229 52.8816L91.0566 53.3816L88.1699 48.3689L89.0361 47.8689L91.9229 52.8816ZM13.1074 41.8093L10.7197 45.9558L10.2207 46.822L9.35352 46.322L12.2402 41.3103L13.1074 41.8093ZM88.1455 46.322L87.2793 46.822L86.7803 45.9558L87.2139 45.7058L87.3281 45.6404L86.7803 45.9558L84.3926 41.8093L85.2588 41.3103L88.1455 46.322ZM16.8848 35.2498L13.998 40.2625L13.1309 39.7625L16.0176 34.7498L16.8848 35.2498ZM84.3682 39.7625L83.502 40.2625L80.6152 35.2498L81.4814 34.7498L84.3682 39.7625ZM20.6631 28.6902L17.7754 33.7029L16.9092 33.2039L19.7959 28.1902L20.6631 28.6902ZM80.5898 33.2039L79.7246 33.7029L76.8369 28.6902L77.7031 28.1902L80.5898 33.2039ZM23.0742 22.4988L23.5078 22.7478L23.9414 22.9978L21.5537 27.1433L20.6865 26.6433L23.0742 22.4988ZM74.4248 22.4988L76.8125 26.6433L75.9463 27.1433L73.5586 22.9978L73.9922 22.7478L74.4248 22.4988ZM24.4404 22.1306L23.9414 22.9978L23.0742 22.4988L23.5732 21.6316L24.4404 22.1306ZM74.4248 22.4988L73.9922 22.7478L73.5586 22.9978L73.0596 22.1306L73.9258 21.6316L74.4248 22.4988ZM28.2178 15.5711L25.3311 20.5837L24.4639 20.0847L24.9629 19.2185L27.3506 15.072L28.2178 15.5711ZM72.5361 19.2175L73.0352 20.0847L72.1689 20.5837L69.2822 15.5711L70.1484 15.072L72.5361 19.2175ZM31.126 9.67652L31.5371 9.96168C31.2783 10.335 31.0279 10.7199 30.7881 11.117L30.5518 11.5183L29.1084 14.0252L28.2412 13.5252L28.7402 12.6589L29.6855 11.0193C30.0104 10.4552 30.3558 9.91408 30.7168 9.39332L31.126 9.67652ZM66.7822 9.39332C67.1433 9.91422 67.4895 10.4551 67.8145 11.0193L68.7578 12.6589L69.2578 13.5252L68.3916 14.0252L66.9482 11.5183C66.6372 10.9783 66.3079 10.4595 65.9629 9.96168L66.374 9.67652L66.7822 9.39332ZM32.1064 9.13941L31.5371 9.96168L31.126 9.67652L30.7168 9.39332C30.908 9.1174 31.1039 8.84751 31.3047 8.58375L32.1064 9.13941ZM66.1943 8.58375C66.3951 8.84752 66.591 9.11739 66.7822 9.39332L66.374 9.67652L65.9629 9.96168L65.3936 9.13941L66.1943 8.58375ZM36.6758 4.77516C35.6894 5.46756 34.7521 6.25502 33.8779 7.13844L33.1748 7.84938L32.4814 7.16383C33.5878 5.93789 34.8035 4.86904 36.1016 3.95777L36.6758 4.77516ZM61.3975 3.95777C62.6956 4.86902 63.9112 5.93789 65.0176 7.16383L64.3252 7.84938L63.6221 7.13844L63.291 6.81227C62.5125 6.06013 61.6873 5.38105 60.8242 4.77516L61.3975 3.95777ZM37.4941 4.19996L36.6758 4.77516L36.1016 3.95777C36.3754 3.76556 36.6537 3.58032 36.9346 3.40211L37.4941 4.19996ZM60.5645 3.40211C60.8453 3.58032 61.1236 3.76556 61.3975 3.95777L60.8242 4.77516L60.0059 4.19996L60.5645 3.40211ZM39.8496 2.94605L38.9424 3.36695L38.5322 2.48121C38.8285 2.32704 39.1278 2.18059 39.4297 2.04078L39.8496 2.94605ZM58.0693 2.04078C58.3712 2.18058 58.6706 2.32705 58.9668 2.48121L58.5576 3.36695L57.6504 2.94605L58.0693 2.04078ZM44.2656 1.44898L43.2988 1.70387L42.8584 1.82594C41.8326 2.12081 40.8261 2.49385 39.8496 2.94605L39.4297 2.04078C40.9052 1.35741 42.4442 0.84479 44.0156 0.504649L44.2656 1.44898ZM53.4834 0.504649C55.0549 0.844727 56.5938 1.35747 58.0693 2.04078L57.8945 2.41969L57.6504 2.94605C56.6739 2.49385 55.6674 2.12081 54.6416 1.82594L54.2012 1.70387L53.2344 1.44898L53.4834 0.504649ZM45.834 0.190195C47.7682 -0.0634416 49.7308 -0.0633553 51.665 0.190195L51.582 1.16285L50.585 1.07691L50.127 1.04273C49.0573 0.973938 47.9832 0.98519 46.915 1.07691L45.918 1.16285L45.834 0.190195Z" fill="#D6EAFF"/>
<path d="M42.6517 37.7728C43.2024 36.7569 44.0173 35.9085 45.0102 35.3173C46.0031 34.7261 47.1373 34.4141 48.2929 34.4141C49.4485 34.4141 50.5826 34.7261 51.5756 35.3173C52.5685 35.9085 53.3833 36.7569 53.9341 37.7728C54.6077 37.0577 55.4828 36.5642 56.4433 36.3578C57.4038 36.1514 58.4044 36.2419 59.3123 36.6172C60.2202 36.9925 60.9926 37.635 61.5271 38.4593C62.0615 39.2837 62.3327 40.2511 62.3047 41.2331C62.2768 42.2151 61.951 43.1655 61.3705 43.9581C60.79 44.7507 59.9823 45.3482 59.0545 45.6712C58.1267 45.9943 57.1226 46.0277 56.1754 45.767C55.2282 45.5063 54.3826 44.9638 53.7507 44.2115C53.1753 45.1412 52.3719 45.9084 51.4167 46.4404C50.4615 46.9723 49.3862 47.2514 48.2929 47.2511C47.2 47.2513 46.1252 46.9724 45.1704 46.4407C44.2156 45.9091 43.4124 45.1424 42.8369 44.2133C42.2049 44.9654 41.3593 45.5076 40.4121 45.7681C39.465 46.0286 38.461 45.995 37.5333 45.6719C36.6056 45.3487 35.7981 44.7513 35.2177 43.9587C34.6374 43.1661 34.3117 42.2159 34.2837 41.2339C34.2557 40.252 34.5269 39.2847 35.0612 38.4604C35.5956 37.6361 36.3678 36.9937 37.2756 36.6183C38.1834 36.2429 39.1838 36.1523 40.1443 36.3585C41.1047 36.5647 41.978 37.0579 42.6517 37.7728ZM43.8141 39.8628C44.0032 40.581 44.0251 41.333 43.8782 42.061C44.1467 43.0262 44.724 43.8769 45.5217 44.483C46.3195 45.0891 47.2938 45.4173 48.2956 45.4173C49.2975 45.4173 50.2718 45.0891 51.0695 44.483C51.8673 43.8769 52.4445 43.0262 52.7131 42.061C52.5659 41.3325 52.5872 40.58 52.7754 39.861C52.5531 38.8379 51.9874 37.9216 51.1723 37.2645C50.3572 36.6075 49.3417 36.2491 48.2947 36.2491C47.2477 36.2491 46.2323 36.6075 45.4172 37.2645C44.602 37.9216 44.0363 38.8397 43.8141 39.8628ZM41.9331 39.993C41.6742 39.333 41.1908 38.7855 40.5679 38.4468C39.9451 38.1081 39.2228 37.9999 38.5281 38.1413C37.8334 38.2828 37.2108 38.6647 36.7699 39.2199C36.3291 39.7751 36.0982 40.4681 36.1179 41.1768C36.1376 41.8854 36.4067 42.5645 36.8778 43.0943C37.3488 43.6242 37.9916 43.9709 38.6931 44.0734C39.3946 44.176 40.1098 44.0279 40.7129 43.6551C41.3159 43.2822 41.7681 42.7087 41.9899 42.0353C41.862 41.3619 41.8428 40.6724 41.9331 39.993ZM54.5996 42.0335C54.8212 42.7075 55.2734 43.2818 55.8768 43.6551C56.4801 44.0285 57.1959 44.1771 57.898 44.0746C58.6001 43.9722 59.2435 43.6253 59.715 43.0951C60.1865 42.5649 60.4559 41.8854 60.4756 41.1761C60.4954 40.4668 60.2643 39.7734 59.823 39.2177C59.3818 38.6621 58.7586 38.28 58.0633 38.1386C57.368 37.9972 56.6451 38.1057 56.0219 38.4449C55.3987 38.7841 54.9152 39.3323 54.6564 39.993C54.7465 40.6718 54.7273 41.3607 54.5996 42.0335ZM35.3697 46.879C36.0059 46.7103 36.6072 46.9193 37.0216 47.22C37.1866 47.3391 37.4139 47.4858 37.6907 47.6196C37.9027 47.7295 38.0634 47.9176 38.1388 48.1441C38.2141 48.3706 38.1982 48.6175 38.0943 48.8324C37.9904 49.0474 37.8068 49.2133 37.5825 49.2949C37.3582 49.3766 37.1109 49.3675 36.8932 49.2696C36.5612 49.1098 36.244 48.9208 35.9454 48.705C35.9157 48.6837 35.8829 48.667 35.8482 48.6555L35.8354 48.6536C35.5882 48.7196 35.343 48.793 35.1002 48.8736L33.8426 49.2843C33.3736 49.437 32.9496 49.7034 32.6086 50.0598C32.2676 50.4161 32.0201 50.8514 31.8882 51.3266L31.3694 55.0831C31.2667 55.822 31.6572 56.3756 32.2127 56.5076C32.6222 56.6079 33.119 56.7056 33.7032 56.801C33.8222 56.8202 33.9361 56.8627 34.0386 56.926C34.1412 56.9894 34.2302 57.0722 34.3007 57.17C34.3712 57.2677 34.4217 57.3783 34.4494 57.4956C34.4771 57.6128 34.4815 57.7344 34.4622 57.8533C34.443 57.9722 34.4005 58.0862 34.3372 58.1887C34.2739 58.2912 34.191 58.3803 34.0933 58.4508C33.9955 58.5212 33.8849 58.5718 33.7676 58.5995C33.6504 58.6272 33.5288 58.6316 33.4099 58.6123C32.8658 58.5257 32.3252 58.4187 31.7892 58.2915C30.1484 57.901 29.3454 56.3298 29.5526 54.832L30.0879 50.971L30.0989 50.9215C30.2997 50.1365 30.6958 49.415 31.2503 48.8243C31.8048 48.2335 32.4998 47.7926 33.2706 47.5426L34.5264 47.1301C34.8075 47.0385 35.0886 46.9548 35.3697 46.879ZM61.4562 46.879C61.1731 46.8097 60.8782 46.8043 60.5927 46.8633C60.3073 46.9223 60.0386 47.0441 59.8062 47.22C59.6412 47.3391 59.4139 47.4858 59.1371 47.6196C58.9251 47.7295 58.7644 47.9176 58.689 48.1441C58.6136 48.3706 58.6296 48.6175 58.7335 48.8324C58.8373 49.0474 59.0209 49.2133 59.2452 49.2949C59.4695 49.3766 59.7168 49.3675 59.9346 49.2696C60.2666 49.1098 60.5838 48.9208 60.8824 48.705C60.9121 48.6837 60.9449 48.667 60.9796 48.6555L60.9887 48.6536H60.9924C61.2405 48.7184 61.4856 48.7918 61.7276 48.8736L62.9852 49.2843C63.9496 49.6015 64.6811 50.3733 64.9396 51.3266L65.4584 55.0831C65.5611 55.822 65.1724 56.3756 64.6151 56.5076C64.1221 56.6241 63.6249 56.722 63.1246 56.801C62.8844 56.8399 62.6695 56.9726 62.5271 57.17C62.3848 57.3673 62.3267 57.6131 62.3656 57.8533C62.4045 58.0935 62.5372 58.3084 62.7345 58.4508C62.9319 58.5931 63.1777 58.6512 63.4179 58.6123C64.0437 58.5084 64.5839 58.4015 65.0386 58.2915C66.6794 57.901 67.4824 56.3298 67.2752 54.832L66.7399 50.971L66.7289 50.9215C66.5281 50.1365 66.132 49.415 65.5775 48.8243C65.0229 48.2335 64.328 47.7926 63.5572 47.5426L62.3014 47.1301C62.0226 47.0389 61.7395 46.9552 61.4562 46.879Z" fill="#283FFF"/>
<path d="M51.5763 49.8538C52.2345 49.4174 53.153 49.1021 54.1008 49.3679C54.3868 49.4486 54.6722 49.536 54.957 49.6301L56.7151 50.2076C57.7353 50.5388 58.6551 51.1227 59.3891 51.9048C60.1232 52.6868 60.6475 53.6418 60.9135 54.6809L60.9263 54.7304L61.6706 60.1131C61.9401 62.0564 60.9006 64.0548 58.8216 64.5498C56.7133 65.0521 53.2996 65.5838 48.2928 65.5838C43.2878 65.5838 39.8723 65.0521 37.764 64.5498C35.685 64.0548 34.6455 62.0564 34.915 60.1131L35.6593 54.7304L35.6721 54.6809C35.9381 53.6418 36.4624 52.6868 37.1964 51.9048C37.9305 51.1227 38.8503 50.5388 39.8705 50.2076L41.6305 49.6301C41.914 49.536 42.1988 49.4486 42.4848 49.3679C43.4326 49.1003 44.3511 49.4174 45.0093 49.8538C45.7115 50.3194 46.8665 50.8914 48.2928 50.8914C49.7191 50.8914 50.876 50.3194 51.5763 49.8538ZM53.6021 51.1316C53.3418 51.0583 52.9788 51.1243 52.5901 51.3809C51.7156 51.9621 50.2068 52.7248 48.2928 52.7248C46.3788 52.7248 44.87 51.9621 43.9955 51.3809C43.6086 51.1243 43.2438 51.0583 42.9835 51.1316C42.7207 51.2049 42.4603 51.2844 42.2025 51.3699L40.4425 51.9493C39.7243 52.1831 39.0757 52.5922 38.5552 53.1395C38.0348 53.6869 37.6589 54.3552 37.4615 55.0843L36.73 60.3643C36.565 61.5504 37.1938 62.5276 38.1893 62.7659C40.1455 63.2334 43.418 63.7504 48.2928 63.7504C53.1676 63.7504 56.4401 63.2334 58.3963 62.7659C59.3918 62.5276 60.0188 61.5504 59.8556 60.3643L59.1241 55.0843C58.9267 54.3552 58.5508 53.6869 58.0304 53.1395C57.5099 52.5922 56.8613 52.1831 56.1431 51.9493L54.3831 51.3718C54.1252 51.2862 53.8649 51.2068 53.6021 51.1334" fill="#283FFF"/>
<rect x="4" y="7" width="30" height="30" rx="15" fill="#0B1A45"/>
<path d="M14.8 27.5V25.916C15.4827 25.372 16.144 24.828 16.784 24.284C17.4347 23.74 18.016 23.2013 18.528 22.668C19.04 22.124 19.4453 21.596 19.744 21.084C20.0427 20.572 20.192 20.076 20.192 19.596C20.192 19.2973 20.1387 19.0253 20.032 18.78C19.9253 18.524 19.7547 18.3213 19.52 18.172C19.296 18.012 18.9973 17.932 18.624 17.932C18.2507 17.932 17.936 18.0173 17.68 18.188C17.424 18.3587 17.232 18.588 17.104 18.876C16.976 19.1533 16.912 19.468 16.912 19.82H14.816C14.848 18.9987 15.0347 18.3107 15.376 17.756C15.7173 17.2013 16.176 16.7907 16.752 16.524C17.328 16.2467 17.9733 16.108 18.688 16.108C19.4773 16.108 20.144 16.2573 20.688 16.556C21.232 16.844 21.6427 17.2387 21.92 17.74C22.208 18.2413 22.352 18.8173 22.352 19.468C22.352 19.9587 22.2613 20.4387 22.08 20.908C21.9093 21.3773 21.664 21.836 21.344 22.284C21.0347 22.7213 20.6827 23.1427 20.288 23.548C19.8933 23.9533 19.4827 24.3427 19.056 24.716C18.6293 25.0787 18.2133 25.42 17.808 25.74H22.624V27.5H14.8Z" fill="white"/>
</svg>
