<svg width="16" height="17" viewBox="0 0 16 17" fill="none" xmlns="http://www.w3.org/2000/svg">
<path d="M8 15.1673C8 15.1673 13 11.1673 13 6.83398C13 4.07265 10.7613 1.83398 8 1.83398C5.23867 1.83398 3 4.07265 3 6.83398C3 11.1673 8 15.1673 8 15.1673Z" stroke="white" stroke-linejoin="round"/>
<path d="M8 8.83398C8.26264 8.83398 8.52272 8.78225 8.76537 8.68174C9.00802 8.58123 9.2285 8.43392 9.41421 8.2482C9.59993 8.06248 9.74725 7.842 9.84776 7.59935C9.94827 7.3567 10 7.09663 10 6.83398C10 6.57134 9.94827 6.31127 9.84776 6.06862C9.74725 5.82597 9.59993 5.60549 9.41421 5.41977C9.2285 5.23405 9.00802 5.08673 8.76537 4.98623C8.52272 4.88572 8.26264 4.83398 8 4.83398C7.46957 4.83398 6.96086 5.0447 6.58579 5.41977C6.21071 5.79484 6 6.30355 6 6.83398C6 7.36442 6.21071 7.87313 6.58579 8.2482C6.96086 8.62327 7.46957 8.83398 8 8.83398Z" stroke="white" stroke-linejoin="round"/>
</svg>
