<svg width="32" height="32" viewBox="0 0 32 32" fill="none" xmlns="http://www.w3.org/2000/svg">
<path d="M31 26.0006C31 26.2658 30.8946 26.5202 30.7071 26.7077C30.5196 26.8953 30.2652 27.0006 30 27.0006H2C1.73478 27.0006 1.48043 26.8953 1.29289 26.7077C1.10536 26.5202 1 26.2658 1 26.0006C1 25.7354 1.10536 25.4811 1.29289 25.2935C1.48043 25.106 1.73478 25.0006 2 25.0006H30C30.2652 25.0006 30.5196 25.106 30.7071 25.2935C30.8946 25.4811 31 25.7354 31 26.0006ZM2.0375 12.2731C1.97802 12.0634 1.9887 11.84 2.0679 11.6369C2.1471 11.4338 2.2905 11.2622 2.47625 11.1481L15.4762 3.14813C15.6338 3.05128 15.8151 3 16 3C16.1849 3 16.3662 3.05128 16.5238 3.14813L29.5238 11.1481C29.7096 11.2621 29.8531 11.4336 29.9324 11.6366C30.0118 11.8396 30.0226 12.063 29.9633 12.2727C29.904 12.4824 29.7778 12.667 29.6039 12.7985C29.43 12.9299 29.218 13.0009 29 13.0006H26V21.0006H28C28.2652 21.0006 28.5196 21.106 28.7071 21.2935C28.8946 21.4811 29 21.7354 29 22.0006C29 22.2658 28.8946 22.5202 28.7071 22.7077C28.5196 22.8953 28.2652 23.0006 28 23.0006H4C3.73478 23.0006 3.48043 22.8953 3.29289 22.7077C3.10536 22.5202 3 22.2658 3 22.0006C3 21.7354 3.10536 21.4811 3.29289 21.2935C3.48043 21.106 3.73478 21.0006 4 21.0006H6V13.0006H3C2.78224 13.0007 2.5704 12.9297 2.39668 12.7984C2.22295 12.6671 2.09684 12.4827 2.0375 12.2731ZM18 20.0006C18 20.2658 18.1054 20.5202 18.2929 20.7077C18.4804 20.8953 18.7348 21.0006 19 21.0006C19.2652 21.0006 19.5196 20.8953 19.7071 20.7077C19.8946 20.5202 20 20.2658 20 20.0006V14.0006C20 13.7354 19.8946 13.4811 19.7071 13.2935C19.5196 13.106 19.2652 13.0006 19 13.0006C18.7348 13.0006 18.4804 13.106 18.2929 13.2935C18.1054 13.4811 18 13.7354 18 14.0006V20.0006ZM12 20.0006C12 20.2658 12.1054 20.5202 12.2929 20.7077C12.4804 20.8953 12.7348 21.0006 13 21.0006C13.2652 21.0006 13.5196 20.8953 13.7071 20.7077C13.8946 20.5202 14 20.2658 14 20.0006V14.0006C14 13.7354 13.8946 13.4811 13.7071 13.2935C13.5196 13.106 13.2652 13.0006 13 13.0006C12.7348 13.0006 12.4804 13.106 12.2929 13.2935C12.1054 13.4811 12 13.7354 12 14.0006V20.0006Z" fill="#E08C35"/>
</svg>
