<svg width="32" height="32" viewBox="0 0 32 32" fill="none" xmlns="http://www.w3.org/2000/svg">
<path d="M27 8.00056H18.4137L22.7075 3.70806C22.8951 3.52042 23.0006 3.26592 23.0006 3.00056C23.0006 2.73519 22.8951 2.4807 22.7075 2.29306C22.5199 2.10542 22.2654 2 22 2C21.7346 2 21.4801 2.10542 21.2925 2.29306L16 7.58681L10.7075 2.29306C10.6146 2.20015 10.5043 2.12645 10.3829 2.07616C10.2615 2.02588 10.1314 2 10 2C9.86861 2 9.7385 2.02588 9.6171 2.07616C9.49571 2.12645 9.38541 2.20015 9.2925 2.29306C9.10486 2.4807 8.99944 2.73519 8.99944 3.00056C8.99944 3.26592 9.10486 3.52042 9.2925 3.70806L13.5863 8.00056H5C4.46957 8.00056 3.96086 8.21127 3.58579 8.58634C3.21071 8.96142 3 9.47012 3 10.0006V25.0006C3 25.531 3.21071 26.0397 3.58579 26.4148C3.96086 26.7898 4.46957 27.0006 5 27.0006H27C27.5304 27.0006 28.0391 26.7898 28.4142 26.4148C28.7893 26.0397 29 25.531 29 25.0006V10.0006C29 9.47012 28.7893 8.96142 28.4142 8.58634C28.0391 8.21127 27.5304 8.00056 27 8.00056ZM27 25.0006H5V10.0006H27V25.0006ZM25 12.5006V22.5006C25 22.6332 24.9473 22.7603 24.8536 22.8541C24.7598 22.9479 24.6326 23.0006 24.5 23.0006H7.5C7.36739 23.0006 7.24021 22.9479 7.14645 22.8541C7.05268 22.7603 7 22.6332 7 22.5006V12.5006C7 12.3679 7.05268 12.2408 7.14645 12.147C7.24021 12.0532 7.36739 12.0006 7.5 12.0006H24.5C24.6326 12.0006 24.7598 12.0532 24.8536 12.147C24.9473 12.2408 25 12.3679 25 12.5006Z" fill="#E08C35"/>
</svg>
