<svg width="170" height="34" viewBox="0 0 170 34" fill="none" xmlns="http://www.w3.org/2000/svg">
<path d="M13.6393 4.32512L11.1803 25.8596C11.1412 26.0796 11.019 26.1969 10.8088 26.2164L7.97826 26.3729C7.81694 26.3729 7.72161 26.2824 7.69228 26.1016L4.69065 10.8319L3.63226 25.9158C3.62248 26.1456 3.49782 26.2629 3.26072 26.2727L0.315317 26.3729C0.105106 26.3729 0 26.2824 0 26.1016L2.47121 4.46933C2.51032 4.2689 2.63253 4.1589 2.84274 4.13935L5.7466 3.98291C5.88103 3.98291 5.96903 4.0098 6.01058 4.06113C6.05458 4.11246 6.0888 4.2029 6.11813 4.32512L9.01954 18.7515L10.0217 4.46689C10.0315 4.25668 10.1586 4.14668 10.4079 4.13691L13.2531 3.98047C13.5098 3.98047 13.6393 4.09535 13.6393 4.32267V4.32512Z" fill="#E08C35"/>
<path d="M28.1338 9.4013L26.2762 25.8882C26.2468 26.1351 26.1246 26.2647 25.9046 26.2744L23.0154 26.3747C22.815 26.3551 22.7148 26.2647 22.7148 26.1033L22.9861 24.1577C22.5486 24.9007 22.0695 25.4727 21.5488 25.8736C21.0282 26.2744 20.4465 26.4749 19.7963 26.4749C19.1461 26.4749 18.5961 26.3624 18.1366 26.1376C17.677 25.9127 17.3055 25.6194 17.0146 25.2503C16.7238 24.8836 16.4867 24.4436 16.3058 23.9279C15.9709 23.0137 15.8047 21.7622 15.8047 20.1734C15.8047 18.5846 15.9122 17.2402 16.1273 16.1354C16.3424 15.0306 16.5307 14.1897 16.692 13.6129C16.8533 13.036 17.0708 12.442 17.3422 11.8334C17.6135 11.2223 17.9215 10.7139 18.2637 10.3033C19.0459 9.36952 20.0309 8.90266 21.2237 8.90266C22.111 8.90266 22.7881 9.11531 23.255 9.53818C23.7218 9.96349 24.1129 10.5892 24.4282 11.4179L24.5994 9.47218C24.6189 9.26197 24.7362 9.14709 24.9562 9.12998L27.7599 9.02976C28.0067 9.04932 28.1314 9.17153 28.1314 9.4013H28.1338ZM22.1721 2.49609C22.5999 2.49609 23.1548 2.64764 23.8318 2.95318C24.5089 3.25872 25.032 3.41027 25.4035 3.41027C25.7751 3.41027 26.2322 3.29294 26.7772 3.06073C27.3199 2.82608 27.6816 2.71119 27.865 2.71119C28.0483 2.71119 28.1461 2.80163 28.1656 2.98251L28.2512 4.05557C28.2512 4.23645 28.1363 4.432 27.909 4.64221C26.8799 5.67127 25.846 6.18702 24.8071 6.18702C24.3696 6.18702 23.8147 6.04036 23.1474 5.7446C22.4801 5.44883 21.9595 5.30217 21.5879 5.30217C21.2164 5.30217 20.752 5.4195 20.1947 5.65171C19.6374 5.88637 19.2781 6.00125 19.1143 6.00125C18.9505 6.00125 18.8625 5.91081 18.843 5.72993L18.7574 4.65687C18.7574 4.47599 18.8625 4.28045 19.0727 4.07024C20.1214 3.02162 21.1553 2.49609 22.1746 2.49609H22.1721ZM19.4125 19.7677C19.4125 22.0458 20.0236 23.1848 21.2433 23.1848C21.7762 23.1848 22.2112 22.9404 22.5437 22.4491C22.8761 21.9578 23.1645 20.9752 23.409 19.4963C23.651 18.02 23.7732 16.942 23.7732 16.2649C23.7732 15.5879 23.7683 15.1601 23.7585 14.9792C23.7487 14.7984 23.7292 14.5564 23.7023 14.2582C23.6754 13.96 23.6216 13.7057 23.5458 13.5004C23.4701 13.2951 23.3699 13.0873 23.2452 12.8796C22.9983 12.4689 22.5975 12.2636 22.045 12.2636C21.4926 12.2636 21.0526 12.508 20.73 12.9993C20.4049 13.4906 20.1531 14.1457 19.9723 14.9646C19.6007 16.7196 19.4149 18.3206 19.4149 19.7677H19.4125Z" fill="#E08C35"/>
<path d="M35.7754 26.4716C34.0839 26.4716 32.8446 25.9632 32.0576 24.9488C31.2705 23.9344 30.877 22.4532 30.877 20.5099C30.877 19.6055 30.9772 18.4225 31.1776 16.9632C31.378 15.504 31.5638 14.4456 31.7349 13.7807C31.906 13.1183 32.1504 12.4706 32.4633 11.835C32.7786 11.202 33.1502 10.6789 33.5779 10.2682C34.5214 9.35406 35.7998 8.89453 37.4106 8.89453C39.6985 8.89453 41.1798 9.73293 41.8568 11.4122C42.2186 12.3092 42.3995 13.3921 42.3995 14.6656C42.3995 15.9391 42.3017 17.2565 42.1062 18.618C41.9106 19.982 41.7273 20.989 41.5562 21.6417C41.3851 22.2943 41.1431 22.9347 40.8351 23.558C40.5247 24.1813 40.1556 24.6995 39.7278 25.1101C38.7843 26.017 37.4668 26.4692 35.7754 26.4692V26.4716ZM38.3004 20.2093C38.4055 19.7033 38.5399 18.7574 38.7086 17.3714C38.8748 15.9855 38.9579 14.9564 38.9579 14.2891C38.9579 12.6686 38.3712 11.8595 37.2004 11.8595C36.648 11.8595 36.1933 12.121 35.834 12.6466C35.4772 13.1721 35.1887 14.0423 34.9687 15.2644C34.5312 17.743 34.3112 19.7546 34.3112 21.2995C34.3112 22.8443 34.893 23.6167 36.0565 23.6167C36.6089 23.6167 37.0684 23.3527 37.4351 22.8223C37.8017 22.2943 38.0901 21.4241 38.3004 20.2117V20.2093Z" fill="#E08C35"/>
<path d="M54.2984 25.9154C54.2496 25.9643 53.7827 26.067 52.8979 26.2307C52.0106 26.392 51.1159 26.4727 50.2091 26.4727C48.723 26.4727 47.5839 25.9912 46.7919 25.0281C46 24.0651 45.6064 22.7549 45.6064 21.0952C45.6064 18.1498 45.9584 14.7278 46.6648 10.8291C47.0364 8.73184 47.4935 7.26036 48.0385 6.40974C48.6105 5.52245 49.2974 4.90404 50.0967 4.55205C51.0964 4.11452 52.167 3.89453 53.3061 3.89453C54.4451 3.89453 55.2077 3.92631 55.5939 3.98742C55.9801 4.04852 56.1977 4.08519 56.2441 4.09497C56.3688 4.13407 56.4299 4.2514 56.4299 4.45184L56.0999 7.11126C56.0608 7.35813 55.9655 7.48279 55.8139 7.48279C55.6624 7.48279 55.308 7.44124 54.7555 7.36058C54.2031 7.27991 53.7558 7.23836 53.4112 7.23836C52.497 7.23836 51.8004 7.47057 51.3237 7.93255C50.8471 8.39452 50.4926 9.28181 50.258 10.592C50.0233 11.9021 49.7985 13.662 49.5785 15.8668C49.3585 18.074 49.2485 19.7631 49.2485 20.9363C49.2485 22.3198 49.8596 23.0091 51.0793 23.0091C51.4313 23.0091 52.0472 22.9504 52.9247 22.8307C53.8023 22.7109 54.3033 22.6522 54.4256 22.6522C54.626 22.6522 54.7262 22.772 54.7262 23.0091L54.3962 25.6685C54.3767 25.7834 54.3449 25.8641 54.296 25.913L54.2984 25.9154Z" fill="#0B1A45"/>
<path d="M62.8974 26.4736C61.206 26.4736 59.9667 25.9652 59.1796 24.9508C58.3926 23.9364 57.999 22.4551 57.999 20.5119C57.999 19.6075 58.0992 18.4244 58.2997 16.9652C58.5001 15.5059 58.6859 14.4475 58.857 13.7827C59.0281 13.1203 59.2725 12.4725 59.5854 11.837C59.9007 11.2039 60.2722 10.6808 60.7 10.2702C61.6435 9.35602 62.9219 8.89648 64.5327 8.89648C66.8206 8.89648 68.3018 9.73489 68.9789 11.4141C69.3407 12.3112 69.5215 13.394 69.5215 14.6675C69.5215 15.941 69.4238 17.2585 69.2282 18.62C69.0327 19.9839 68.8494 20.991 68.6783 21.6436C68.5072 22.2962 68.2652 22.9367 67.9572 23.56C67.6468 24.1833 67.2777 24.7015 66.8499 25.1121C65.9064 26.0189 64.5889 26.4711 62.8974 26.4711V26.4736ZM65.4224 20.2112C65.5275 19.7053 65.662 18.7593 65.8306 17.3734C65.9968 15.9875 66.0799 14.9584 66.0799 14.2911C66.0799 12.6705 65.4933 11.8614 64.3225 11.8614C63.7701 11.8614 63.3154 12.123 62.9561 12.6485C62.5992 13.174 62.3108 14.0442 62.0908 15.2664C61.6533 17.7449 61.4333 19.7566 61.4333 21.3014C61.4333 22.8462 62.015 23.6186 63.1785 23.6186C63.731 23.6186 64.1905 23.3546 64.5571 22.8242C64.9238 22.2962 65.2122 21.4261 65.4224 20.2137V20.2112Z" fill="#0B1A45"/>
<path d="M77.7023 9.40148L77.5458 10.7165C78.9195 9.50658 80.2346 8.90039 81.4934 8.90039C83.0944 8.90039 84.1064 9.7779 84.5244 11.5305C84.6393 12.0071 84.6955 12.4569 84.6955 12.8822C84.6955 13.3075 84.6808 13.6473 84.6515 13.9039L83.2778 25.886C83.2387 26.1255 83.1213 26.2526 82.9209 26.2722L80.0317 26.3724C79.8215 26.3528 79.7164 26.2624 79.7164 26.1011L81.0168 14.7765C81.0461 14.5297 81.0608 14.3048 81.0608 14.1043C81.0608 13.3222 80.8774 12.7917 80.5108 12.5107C80.1442 12.2296 79.6797 12.0878 79.1175 12.0878C78.5553 12.0878 77.9687 12.2076 77.3601 12.4447L75.8299 25.886C75.7908 26.1255 75.6735 26.2526 75.4731 26.2722L72.5839 26.3724C72.3737 26.3528 72.2686 26.2624 72.2686 26.1011L74.1556 9.47236C74.1947 9.26215 74.312 9.14727 74.5124 9.13016L77.3161 9.02994C77.5727 9.03972 77.7023 9.16438 77.7023 9.40148Z" fill="#0B1A45"/>
<path d="M89.7828 9.08715C90.0028 6.98992 90.1446 5.90465 90.2106 5.83376C90.2766 5.76288 90.3768 5.72132 90.5112 5.71155L93.2415 5.61133C93.4982 5.63088 93.6277 5.75065 93.6277 5.9682C93.4468 7.02659 93.2928 8.04098 93.1706 9.01382L96.5022 8.89894C96.732 8.90872 96.8444 9.03338 96.8444 9.27048L96.4436 11.5437C96.4045 11.7735 96.2871 11.8908 96.0867 11.9006L92.8113 12.0301C92.1636 17.8647 91.8385 21.0814 91.8385 21.6803C91.8385 22.7949 92.3151 23.3522 93.2684 23.3522C93.7548 23.3522 94.2266 23.2764 94.6837 23.1224C95.1407 22.9709 95.4267 22.8927 95.5416 22.8927C95.7421 22.8927 95.8423 23.0173 95.8423 23.2642L95.5416 25.7672C95.5221 25.909 95.4878 26.0141 95.4341 26.0825C95.3827 26.1485 95.1481 26.2292 94.7325 26.3245C94.317 26.4198 93.6106 26.4663 92.6084 26.4663C91.1394 26.4663 90.0541 26.1265 89.3477 25.4445C88.6413 24.7626 88.2893 23.7457 88.2893 22.3916C88.2893 21.0374 88.6657 17.5958 89.4186 12.0692L88.018 12.1254C87.7785 12.1157 87.6611 11.9959 87.6611 11.7686L88.0473 9.46602C88.0767 9.24603 88.1989 9.13359 88.4189 9.12382L89.7779 9.07982L89.7828 9.08715Z" fill="#0B1A45"/>
<path d="M107.797 12.6783L106.267 12.5219C105.028 12.5219 103.989 12.7688 103.15 13.265L101.735 25.8752C101.696 26.1147 101.579 26.2419 101.378 26.2614L98.4891 26.3763C98.2789 26.3567 98.1738 26.2663 98.1738 26.105L100.061 9.47627C100.1 9.26606 100.217 9.15117 100.418 9.13406L103.207 9.03385C103.463 9.04362 103.593 9.16828 103.593 9.40538L103.422 10.8793C104.033 10.2609 104.622 9.77692 105.194 9.42738C105.766 9.08029 106.34 8.9043 106.917 8.9043C107.494 8.9043 107.934 8.92874 108.24 8.97518C108.44 9.01429 108.54 9.14628 108.54 9.37605C108.54 10.0336 108.43 11.0113 108.21 12.3068C108.161 12.5537 108.024 12.6783 107.795 12.6783H107.797Z" fill="#0B1A45"/>
<path d="M122.209 9.40294L120.351 25.8899C120.322 26.1368 120.2 26.2663 119.98 26.2761L117.091 26.3763C116.89 26.3567 116.79 26.2663 116.79 26.105L117.061 24.1593C116.624 24.9024 116.145 25.4743 115.624 25.8752C115.103 26.2761 114.522 26.4765 113.871 26.4765C113.221 26.4765 112.671 26.3641 112.212 26.1392C111.752 25.9143 111.381 25.621 111.09 25.2519C110.799 24.8853 110.562 24.4453 110.381 23.9295C110.046 23.0154 109.88 21.7639 109.88 20.1751C109.88 18.5862 109.987 17.2419 110.203 16.137C110.418 15.0322 110.606 14.1914 110.767 13.6145C110.928 13.0376 111.146 12.4437 111.417 11.835C111.689 11.224 111.997 10.7155 112.339 10.3049C113.121 9.37116 114.106 8.9043 115.299 8.9043C116.186 8.9043 116.861 9.11695 117.33 9.53982C117.797 9.96513 118.188 10.5909 118.503 11.4195L118.675 9.47382C118.694 9.26361 118.814 9.14873 119.031 9.13162L121.833 9.0314C122.079 9.05096 122.204 9.17317 122.204 9.40294H122.209ZM113.488 19.7693C113.488 22.0474 114.099 23.1865 115.318 23.1865C115.851 23.1865 116.286 22.942 116.619 22.4507C116.951 21.9594 117.24 20.9768 117.484 19.498C117.729 18.0216 117.848 16.9437 117.848 16.2666C117.848 15.5895 117.843 15.1618 117.834 14.9809C117.824 14.8 117.804 14.558 117.777 14.2598C117.748 13.9592 117.697 13.7074 117.621 13.5021C117.545 13.2967 117.445 13.089 117.32 12.8812C117.074 12.4706 116.673 12.2652 116.12 12.2652C115.568 12.2652 115.128 12.5097 114.805 13.001C114.48 13.4923 114.228 14.1474 114.047 14.9662C113.676 16.7212 113.49 18.3223 113.49 19.7693H113.488Z" fill="#0B1A45"/>
<path d="M126.853 9.08715C127.073 6.98992 127.215 5.90465 127.281 5.83376C127.347 5.76288 127.447 5.72132 127.582 5.71155L130.312 5.61133C130.568 5.63088 130.698 5.75065 130.698 5.9682C130.517 7.02659 130.363 8.04098 130.241 9.01382L133.573 8.89894C133.802 8.90872 133.915 9.03338 133.915 9.27048L133.514 11.5437C133.475 11.7735 133.357 11.8908 133.157 11.9006L129.882 12.0301C129.234 17.8647 128.909 21.0814 128.909 21.6803C128.909 22.7949 129.385 23.3522 130.339 23.3522C130.825 23.3522 131.297 23.2764 131.754 23.1224C132.211 22.9709 132.497 22.8927 132.612 22.8927C132.812 22.8927 132.913 23.0173 132.913 23.2642L132.612 25.7672C132.592 25.909 132.558 26.0141 132.504 26.0825C132.453 26.1485 132.218 26.2292 131.803 26.3245C131.387 26.4198 130.681 26.4663 129.679 26.4663C128.21 26.4663 127.124 26.1265 126.418 25.4445C125.712 24.7626 125.36 23.7457 125.36 22.3916C125.36 21.0374 125.736 17.5958 126.489 12.0692L125.088 12.1254C124.849 12.1157 124.731 11.9959 124.731 11.7686L125.118 9.46602C125.147 9.24603 125.269 9.13359 125.489 9.12382L126.848 9.07982L126.853 9.08715Z" fill="#0B1A45"/>
<path d="M136.183 23.6348C135.958 23.0677 135.806 22.5055 135.726 21.9482C135.645 21.3909 135.604 20.6258 135.604 19.653C135.604 18.6801 135.709 17.48 135.919 16.05C136.615 11.2836 138.779 8.90039 142.411 8.90039C143.812 8.90039 144.885 9.38192 145.628 10.345C146.371 11.308 146.742 12.5571 146.742 14.0921C146.742 15.6272 146.647 17.1182 146.456 18.5677C146.427 18.8243 146.28 18.9588 146.014 18.9685L138.95 19.2105C138.94 19.3523 138.935 19.5454 138.935 19.7825C138.935 20.8604 139.123 21.7135 139.5 22.3417C139.876 22.9699 140.446 23.2852 141.208 23.2852C141.971 23.2852 142.68 23.1728 143.332 22.9479C143.985 22.723 144.369 22.613 144.484 22.613C144.599 22.613 144.699 22.6521 144.784 22.7279C144.87 22.8037 144.914 22.9088 144.914 23.0432L144.628 25.5584C144.618 25.7002 144.591 25.7955 144.55 25.8371C144.508 25.8811 144.423 25.9251 144.3 25.974C143.147 26.3088 142.037 26.475 140.969 26.475C139.901 26.475 139.072 26.3455 138.48 26.0888C137.889 25.8322 137.415 25.4998 137.058 25.094C136.701 24.6883 136.41 24.2018 136.185 23.6348H136.183ZM139.292 15.6223L139.162 16.5364L142.895 16.3507C143.056 16.3409 143.161 16.3116 143.21 16.2651C143.352 16.1234 143.425 15.7298 143.425 15.0845C143.425 14.4392 143.403 13.9895 143.362 13.7255C143.32 13.4639 143.244 13.1951 143.139 12.9164C142.919 12.3053 142.545 12.0022 142.017 12.0022C141.489 12.0022 141.071 12.0927 140.766 12.2736C140.089 12.694 139.598 13.8086 139.294 15.6198L139.292 15.6223Z" fill="#0B1A45"/>
<path d="M154.904 9.4024L153.047 25.8893C153.027 26.0238 152.995 26.1191 152.947 26.1753C152.898 26.2315 152.807 26.2658 152.675 26.2755L149.801 26.3758C149.59 26.3562 149.485 26.2658 149.485 26.1044L151.372 9.47573C151.411 9.26552 151.529 9.15063 151.729 9.13352L154.518 9.03331C154.775 9.05286 154.904 9.17508 154.904 9.40484V9.4024ZM153.318 7.47139C152.727 7.47139 152.255 7.28562 151.903 6.91408C151.551 6.54255 151.372 6.06346 151.372 5.47682C151.372 4.89019 151.609 4.3671 152.081 3.90512C152.553 3.44315 153.083 3.21094 153.675 3.21094C154.266 3.21094 154.746 3.39671 155.112 3.76824C155.479 4.13978 155.662 4.61887 155.662 5.2055C155.662 5.79214 155.418 6.31522 154.934 6.7772C154.447 7.23918 153.91 7.47139 153.318 7.47139Z" fill="#0B1A45"/>
<path d="M157.95 32.7233C157.258 32.0316 156.911 31.198 156.911 30.2252C156.911 29.2524 157.258 28.4262 157.95 27.7491C158.642 27.072 159.475 26.7323 160.448 26.7323C161.421 26.7323 162.247 27.072 162.924 27.7491C163.601 28.4286 163.941 29.2524 163.941 30.2252C163.941 31.198 163.601 32.0316 162.924 32.7233C162.245 33.415 161.421 33.7621 160.448 33.7621C159.475 33.7621 158.642 33.415 157.95 32.7233ZM163.191 1.16712L170 0.238281L163.587 23.2809H159.827L163.188 1.16712H163.191Z" fill="#E08C35"/>
</svg>
