<svg width="270" height="42" viewBox="0 0 270 42" fill="none" xmlns="http://www.w3.org/2000/svg">
<path d="M21.6624 5.86917L17.757 31.9869C17.6949 32.2537 17.5008 32.396 17.1669 32.4197L12.6714 32.6095C12.4151 32.6095 12.2637 32.4998 12.2171 32.2804L7.44986 13.7608L5.76888 32.0551C5.75335 32.3338 5.55536 32.4761 5.17879 32.4879L0.500798 32.6095C0.166933 32.6095 0 32.4998 0 32.2804L3.92486 6.04408C3.98697 5.80099 4.18108 5.66758 4.51495 5.64387L9.12695 5.45414C9.34047 5.45414 9.48022 5.48675 9.54622 5.549C9.6161 5.61126 9.67045 5.72095 9.71703 5.86917L14.3252 23.366L15.9168 6.04112C15.9324 5.78617 16.1342 5.65276 16.5302 5.6409L21.049 5.45117C21.4567 5.45117 21.6624 5.59051 21.6624 5.86621V5.86917Z" fill="#E08C35"/>
<path d="M44.6832 12.0272L41.7327 32.0231C41.6861 32.3226 41.492 32.4797 41.1426 32.4915L36.5539 32.6131C36.2356 32.5894 36.0764 32.4797 36.0764 32.284L36.5073 29.9242C35.8124 30.8255 35.0515 31.5192 34.2246 32.0053C33.3977 32.4915 32.4738 32.7346 31.4411 32.7346C30.4085 32.7346 29.535 32.5983 28.8051 32.3255C28.0753 32.0528 27.4852 31.697 27.0232 31.2494C26.5613 30.8047 26.1847 30.2711 25.8974 29.6456C25.3656 28.5368 25.1016 27.019 25.1016 25.092C25.1016 23.165 25.2724 21.5345 25.614 20.1946C25.9556 18.8546 26.2546 17.8348 26.5108 17.1351C26.767 16.4355 27.1125 15.7151 27.5434 14.9769C27.9744 14.2358 28.4635 13.6192 29.007 13.1211C30.2493 11.9887 31.8138 11.4224 33.7083 11.4224C35.1175 11.4224 36.1929 11.6804 36.9344 12.1932C37.6759 12.7091 38.297 13.468 38.7978 14.473L39.0696 12.1132C39.1006 11.8582 39.287 11.7189 39.6364 11.6981L44.0892 11.5766C44.4813 11.6003 44.6793 11.7485 44.6793 12.0272H44.6832ZM35.2146 3.65234C35.894 3.65234 36.7752 3.83615 37.8506 4.20672C38.9259 4.57728 39.7567 4.76109 40.3468 4.76109C40.9369 4.76109 41.6628 4.61879 42.5286 4.33716C43.3904 4.05256 43.965 3.91322 44.2561 3.91322C44.5473 3.91322 44.7026 4.02291 44.7336 4.24229L44.8695 5.54373C44.8695 5.76311 44.687 6.00027 44.326 6.25522C42.6916 7.5033 41.0495 8.12882 39.3995 8.12882C38.7046 8.12882 37.8234 7.95095 36.7636 7.59224C35.7037 7.23353 34.8768 7.05565 34.2867 7.05565C33.6967 7.05565 32.959 7.19795 32.0739 7.47958C31.1888 7.76418 30.6181 7.90352 30.358 7.90352C30.0979 7.90352 29.9581 7.79383 29.9271 7.57445L29.7912 6.27301C29.7912 6.05363 29.9581 5.81647 30.292 5.56152C31.9574 4.28972 33.5996 3.65234 35.2185 3.65234H35.2146ZM30.8316 24.5999C30.8316 27.3629 31.8022 28.7443 33.7394 28.7443C34.5857 28.7443 35.2767 28.4479 35.8047 27.852C36.3326 27.2561 36.7907 26.0644 37.1789 24.2708C37.5633 22.4802 37.7574 21.1729 37.7574 20.3517C37.7574 19.5305 37.7496 19.0117 37.7341 18.7923C37.7186 18.5729 37.6875 18.2795 37.6448 17.9178C37.6021 17.5561 37.5167 17.2478 37.3963 16.9988C37.276 16.7497 37.1168 16.4978 36.9188 16.2458C36.5267 15.7477 35.8901 15.4987 35.0127 15.4987C34.1353 15.4987 33.4366 15.7952 32.9241 16.391C32.4078 16.9869 32.0079 17.7814 31.7206 18.7745C31.1306 20.9031 30.8355 22.8449 30.8355 24.5999H30.8316Z" fill="#E08C35"/>
<path d="M56.8189 32.7341C54.1324 32.7341 52.1642 32.1175 50.9141 30.8872C49.6641 29.6569 49.0391 27.8604 49.0391 25.5036C49.0391 24.4067 49.1982 22.9719 49.5166 21.202C49.8349 19.4322 50.1299 18.1485 50.4017 17.3422C50.6734 16.5388 51.0617 15.7532 51.5586 14.9824C52.0594 14.2146 52.6495 13.5801 53.3288 13.0821C54.8274 11.9734 56.8577 11.416 59.4161 11.416C63.0498 11.416 65.4023 12.4329 66.4777 14.4695C67.0523 15.5575 67.3395 16.8708 67.3395 18.4153C67.3395 19.9599 67.1843 21.5578 66.8737 23.209C66.5631 24.8632 66.272 26.0846 66.0002 26.8762C65.7284 27.6677 65.3441 28.4444 64.855 29.2004C64.3619 29.9563 63.7757 30.5848 63.0963 31.0829C61.5978 32.1827 59.5054 32.7312 56.8189 32.7312V32.7341ZM60.8292 25.136C60.9961 24.5223 61.2096 23.375 61.4775 21.6941C61.7415 20.0132 61.8735 18.7651 61.8735 17.9558C61.8735 15.9903 60.9417 15.0091 59.0822 15.0091C58.2048 15.0091 57.4827 15.3263 56.9121 15.9636C56.3453 16.601 55.8872 17.6564 55.5378 19.1387C54.8429 22.1447 54.4935 24.5846 54.4935 26.4582C54.4935 28.3318 55.4174 29.2686 57.2654 29.2686C58.1427 29.2686 58.8726 28.9484 59.4549 28.3051C60.0372 27.6647 60.4953 26.6094 60.8292 25.1389V25.136Z" fill="#E08C35"/>
<path d="M86.2385 32.0573C86.1609 32.1166 85.4194 32.2411 84.0141 32.4397C82.6048 32.6354 81.184 32.7332 79.7437 32.7332C77.3833 32.7332 75.5743 32.1492 74.3164 30.9811C73.0586 29.8131 72.4336 28.2241 72.4336 26.2112C72.4336 22.6389 72.9926 18.4885 74.1146 13.7601C74.7047 11.2165 75.4306 9.4318 76.2963 8.40014C77.2048 7.324 78.2957 6.57397 79.5651 6.14707C81.1529 5.61642 82.8533 5.34961 84.6624 5.34961C86.4715 5.34961 87.6827 5.38815 88.2961 5.46226C88.9095 5.53638 89.255 5.58084 89.3287 5.5927C89.5267 5.64014 89.6238 5.78243 89.6238 6.02553L89.0997 9.25096C89.0376 9.55038 88.8862 9.70158 88.6455 9.70158C88.4048 9.70158 87.8419 9.65118 86.9645 9.55335C86.0871 9.45552 85.3767 9.40512 84.8293 9.40512C83.3774 9.40512 82.271 9.68675 81.514 10.2471C80.7569 10.8074 80.194 11.8835 79.8213 13.4725C79.4486 15.0615 79.0915 17.196 78.7421 19.873C78.3927 22.55 78.218 24.5985 78.218 26.0214C78.218 27.6994 79.1885 28.5354 81.1257 28.5354C81.6848 28.5354 82.6631 28.4642 84.0568 28.319C85.4505 28.1737 86.2463 28.1026 86.4404 28.1026C86.7587 28.1026 86.9179 28.2478 86.9179 28.5354L86.3938 31.7608C86.3628 31.9002 86.3123 31.998 86.2347 32.0573H86.2385Z" fill="white"/>
<path d="M99.896 32.7361C97.2096 32.7361 95.2413 32.1195 93.9913 30.8892C92.7412 29.6589 92.1162 27.8624 92.1162 25.5055C92.1162 24.4086 92.2754 22.9738 92.5937 21.204C92.9121 19.4341 93.2071 18.1505 93.4789 17.3441C93.7506 16.5407 94.1388 15.7551 94.6357 14.9843C95.1365 14.2165 95.7266 13.5821 96.406 13.084C97.9045 11.9753 99.9349 11.418 102.493 11.418C106.127 11.418 108.479 12.4348 109.555 14.4715C110.129 15.5595 110.417 16.8728 110.417 18.4173C110.417 19.9618 110.261 21.5597 109.951 23.211C109.64 24.8652 109.349 26.0866 109.077 26.8781C108.806 27.6697 108.421 28.4464 107.932 29.2023C107.439 29.9583 106.853 30.5868 106.173 31.0848C104.675 32.1847 102.582 32.7331 99.896 32.7331V32.7361ZM103.906 25.1379C104.073 24.5243 104.287 23.377 104.555 21.6961C104.819 20.0152 104.951 18.7671 104.951 17.9578C104.951 15.9923 104.019 15.011 102.159 15.011C101.282 15.011 100.56 15.3282 99.9892 15.9656C99.4224 16.603 98.9643 17.6584 98.6149 19.1406C97.92 22.1467 97.5706 24.5865 97.5706 26.4601C97.5706 28.3337 98.4946 29.2705 100.343 29.2705C101.22 29.2705 101.95 28.9503 102.532 28.307C103.114 27.6667 103.572 26.6113 103.906 25.1409V25.1379Z" fill="white"/>
<path d="M123.41 12.0296L123.162 13.6245C125.344 12.1571 127.432 11.4219 129.432 11.4219C131.974 11.4219 133.582 12.4862 134.245 14.6117C134.428 15.1898 134.517 15.7353 134.517 16.2511C134.517 16.767 134.494 17.179 134.447 17.4903L132.265 32.0226C132.203 32.3131 132.017 32.4673 131.699 32.491L127.11 32.6125C126.776 32.5888 126.609 32.4791 126.609 32.2834L128.674 18.5487C128.721 18.2492 128.744 17.9765 128.744 17.7334C128.744 16.7848 128.453 16.1414 127.871 15.8005C127.289 15.4596 126.551 15.2877 125.658 15.2877C124.765 15.2877 123.833 15.4329 122.867 15.7205L120.437 32.0226C120.374 32.3131 120.188 32.4673 119.87 32.491L115.281 32.6125C114.947 32.5888 114.78 32.4791 114.78 32.2834L117.777 12.1156C117.839 11.8606 118.026 11.7213 118.344 11.7005L122.797 11.579C123.205 11.5909 123.41 11.742 123.41 12.0296Z" fill="white"/>
<path d="M142.596 11.6453C142.946 9.1017 143.171 7.78543 143.276 7.69946C143.38 7.61349 143.54 7.56309 143.753 7.55123L148.09 7.42969C148.497 7.4534 148.703 7.59867 148.703 7.86251C148.416 9.14617 148.171 10.3765 147.977 11.5563L153.268 11.417C153.633 11.4289 153.812 11.5801 153.812 11.8676L153.175 14.6247C153.113 14.9033 152.927 15.0456 152.608 15.0575L147.406 15.2146C146.377 22.291 145.861 26.1924 145.861 26.9216C145.861 28.2735 146.618 28.9494 148.132 28.9494C148.905 28.9494 149.654 28.8575 150.38 28.6707C151.106 28.4869 151.56 28.3921 151.743 28.3921C152.061 28.3921 152.22 28.5432 152.22 28.8427L151.743 31.8784C151.712 32.0503 151.657 32.1778 151.572 32.2608C151.49 32.3408 151.118 32.4387 150.458 32.5543C149.798 32.6699 148.676 32.7262 147.084 32.7262C144.751 32.7262 143.027 32.3142 141.905 31.487C140.783 30.6599 140.224 29.4267 140.224 27.7843C140.224 26.142 140.822 21.9679 142.018 15.265L139.793 15.3332C139.413 15.3213 139.227 15.1761 139.227 14.9004L139.84 12.1078C139.887 11.8409 140.081 11.7046 140.43 11.6927L142.588 11.6394L142.596 11.6453Z" fill="white"/>
<path d="M171.207 16.0011L168.777 15.8114C166.808 15.8114 165.159 16.1108 163.827 16.7126L161.579 32.0067C161.517 32.2973 161.331 32.4514 161.012 32.4751L156.424 32.6145C156.09 32.5907 155.923 32.4811 155.923 32.2854L158.92 12.1175C158.982 11.8626 159.168 11.7232 159.487 11.7025L163.916 11.5809C164.324 11.5928 164.53 11.744 164.53 12.0316L164.258 13.8192C165.228 13.0692 166.164 12.4822 167.072 12.0582C167.981 11.6373 168.893 11.4238 169.809 11.4238C170.726 11.4238 171.424 11.4535 171.91 11.5098C172.228 11.5572 172.387 11.7173 172.387 11.996C172.387 12.7935 172.212 13.9793 171.863 15.5505C171.785 15.8499 171.568 16.0011 171.203 16.0011H171.207Z" fill="white"/>
<path d="M194.096 12.0286L191.146 32.0245C191.099 32.3239 190.905 32.4811 190.556 32.4929L185.967 32.6145C185.649 32.5907 185.489 32.4811 185.489 32.2854L185.92 29.9256C185.226 30.8268 184.465 31.5205 183.638 32.0067C182.811 32.4929 181.887 32.736 180.854 32.736C179.822 32.736 178.948 32.5996 178.218 32.3269C177.488 32.0542 176.898 31.6984 176.436 31.2508C175.974 30.8061 175.598 30.2725 175.31 29.6469C174.779 28.5382 174.515 27.0204 174.515 25.0934C174.515 23.1664 174.685 21.5359 175.027 20.1959C175.369 18.856 175.668 17.8362 175.924 17.1365C176.18 16.4369 176.526 15.7165 176.957 14.9783C177.387 14.2372 177.877 13.6206 178.42 13.1225C179.662 11.9901 181.227 11.4238 183.121 11.4238C184.531 11.4238 185.602 11.6817 186.347 12.1946C187.089 12.7104 187.71 13.4694 188.211 14.4744L188.483 12.1146C188.514 11.8596 188.704 11.7203 189.049 11.6995L193.498 11.578C193.89 11.6017 194.088 11.7499 194.088 12.0286H194.096ZM180.245 24.6013C180.245 27.3642 181.215 28.7457 183.152 28.7457C183.999 28.7457 184.69 28.4493 185.218 27.8534C185.746 27.2575 186.204 26.0658 186.592 24.2722C186.98 22.4816 187.17 21.1742 187.17 20.3531C187.17 19.5319 187.163 19.0131 187.147 18.7937C187.132 18.5743 187.101 18.2808 187.058 17.9192C187.011 17.5545 186.93 17.2492 186.809 17.0002C186.689 16.7511 186.53 16.4991 186.332 16.2472C185.94 15.7491 185.303 15.5001 184.426 15.5001C183.548 15.5001 182.85 15.7965 182.337 16.3924C181.821 16.9883 181.421 17.7828 181.134 18.7759C180.544 20.9045 180.249 22.8463 180.249 24.6013H180.245Z" fill="white"/>
<path d="M201.472 11.6453C201.822 9.1017 202.047 7.78543 202.152 7.69946C202.256 7.61349 202.416 7.56309 202.629 7.55123L206.966 7.42969C207.373 7.4534 207.579 7.59867 207.579 7.86251C207.292 9.14617 207.047 10.3765 206.853 11.5563L212.144 11.417C212.509 11.4289 212.688 11.5801 212.688 11.8676L212.051 14.6247C211.989 14.9033 211.803 15.0456 211.484 15.0575L206.282 15.2146C205.253 22.291 204.737 26.1924 204.737 26.9216C204.737 28.2735 205.494 28.9494 207.008 28.9494C207.781 28.9494 208.53 28.8575 209.256 28.6707C209.982 28.4869 210.436 28.3921 210.619 28.3921C210.937 28.3921 211.096 28.5432 211.096 28.8427L210.619 31.8784C210.588 32.0503 210.533 32.1778 210.448 32.2608C210.366 32.3408 209.994 32.4387 209.334 32.5543C208.674 32.6699 207.552 32.7262 205.96 32.7262C203.627 32.7262 201.903 32.3142 200.781 31.487C199.659 30.6599 199.1 29.4267 199.1 27.7843C199.1 26.142 199.698 21.9679 200.894 15.265L198.669 15.3332C198.289 15.3213 198.103 15.1761 198.103 14.9004L198.716 12.1078C198.763 11.8409 198.957 11.7046 199.306 11.6927L201.464 11.6394L201.472 11.6453Z" fill="white"/>
<path d="M216.291 29.2922C215.934 28.6044 215.693 27.9226 215.565 27.2467C215.437 26.5708 215.371 25.6428 215.371 24.463C215.371 23.2831 215.538 21.8275 215.872 20.0932C216.978 14.3123 220.414 11.4219 226.183 11.4219C228.407 11.4219 230.112 12.0059 231.292 13.1739C232.472 14.342 233.062 15.8568 233.062 17.7186C233.062 19.5803 232.911 21.3887 232.608 23.1467C232.561 23.458 232.328 23.621 231.905 23.6329L220.686 23.9264C220.67 24.0983 220.662 24.3325 220.662 24.6201C220.662 25.9274 220.961 26.9621 221.559 27.724C222.157 28.4859 223.062 28.8683 224.273 28.8683C225.484 28.8683 226.61 28.7319 227.646 28.4592C228.683 28.1864 229.292 28.053 229.475 28.053C229.657 28.053 229.817 28.1005 229.952 28.1924C230.088 28.2843 230.158 28.4117 230.158 28.5748L229.704 31.6253C229.688 31.7973 229.646 31.9129 229.58 31.9633C229.514 32.0166 229.378 32.07 229.184 32.1293C227.351 32.5354 225.589 32.737 223.892 32.737C222.196 32.737 220.88 32.5799 219.94 32.2686C219.001 31.9573 218.248 31.5542 217.681 31.062C217.114 30.5699 216.652 29.98 216.295 29.2922H216.291ZM221.229 19.5744L221.024 20.6831L226.952 20.4578C227.208 20.446 227.375 20.4104 227.452 20.3541C227.678 20.1821 227.794 19.7048 227.794 18.9222C227.794 18.1396 227.759 17.5941 227.693 17.2739C227.627 16.9567 227.507 16.6306 227.34 16.2926C226.99 15.5515 226.396 15.1839 225.558 15.1839C224.719 15.1839 224.055 15.2936 223.57 15.513C222.495 16.0229 221.715 17.3747 221.233 19.5714L221.229 19.5744Z" fill="white"/>
<path d="M246.024 12.0287L243.073 32.0247C243.042 32.1877 242.992 32.3033 242.914 32.3715C242.836 32.4397 242.693 32.4812 242.483 32.4931L237.918 32.6146C237.584 32.5909 237.417 32.4812 237.417 32.2856L240.414 12.1177C240.476 11.8627 240.662 11.7234 240.981 11.7026L245.41 11.5811C245.818 11.6048 246.024 11.753 246.024 12.0317V12.0287ZM243.504 9.68675C242.565 9.68675 241.815 9.46144 241.256 9.01083C240.697 8.56022 240.414 7.97917 240.414 7.26767C240.414 6.55618 240.791 5.92177 241.54 5.36146C242.289 4.80116 243.132 4.51953 244.071 4.51953C245.01 4.51953 245.771 4.74484 246.354 5.19545C246.936 5.64606 247.227 6.22711 247.227 6.93861C247.227 7.6501 246.839 8.28452 246.07 8.84482C245.298 9.40512 244.444 9.68675 243.504 9.68675Z" fill="white"/>
<path d="M250.861 40.313C249.762 39.474 249.211 38.4631 249.211 37.2832C249.211 36.1033 249.762 35.1013 250.861 34.2801C251.96 33.4589 253.283 33.0469 254.828 33.0469C256.374 33.0469 257.686 33.4589 258.761 34.2801C259.836 35.1043 260.376 36.1033 260.376 37.2832C260.376 38.4631 259.836 39.474 258.761 40.313C257.682 41.152 256.374 41.5729 254.828 41.5729C253.283 41.5729 251.96 41.152 250.861 40.313ZM259.184 2.04059L270 0.914062L259.813 28.8609H253.842L259.18 2.04059H259.184Z" fill="#E08C35"/>
</svg>
