<svg width="20" height="20" viewBox="0 0 20 20" fill="none" xmlns="http://www.w3.org/2000/svg">
<path fill-rule="evenodd" clip-rule="evenodd" d="M4.55876 8.77435C4.44172 8.65716 4.37598 8.49831 4.37598 8.33268C4.37598 8.16706 4.44172 8.0082 4.55876 7.89102L9.55876 2.89101C9.67595 2.77397 9.8348 2.70823 10.0004 2.70823C10.1661 2.70823 10.3249 2.77397 10.4421 2.89101L15.4421 7.89101C15.5035 7.94823 15.5528 8.01723 15.5869 8.0939C15.6211 8.17057 15.6394 8.25333 15.6409 8.33725C15.6424 8.42117 15.627 8.50452 15.5955 8.58235C15.5641 8.66017 15.5173 8.73086 15.458 8.79021C15.3986 8.84956 15.3279 8.89635 15.2501 8.92778C15.1723 8.95922 15.0889 8.97466 15.005 8.97317C14.9211 8.97169 14.8383 8.95333 14.7616 8.91917C14.685 8.88501 14.616 8.83575 14.5588 8.77435L10.6254 4.84101L10.6254 16.666C10.6254 16.8318 10.5596 16.9907 10.4424 17.108C10.3252 17.2252 10.1662 17.291 10.0004 17.291C9.83467 17.291 9.6757 17.2252 9.55849 17.108C9.44127 16.9907 9.37543 16.8318 9.37543 16.666L9.37543 4.84101L5.44209 8.77435C5.32491 8.89139 5.16605 8.95713 5.00043 8.95713C4.8348 8.95713 4.67595 8.89139 4.55876 8.77435Z" fill="white"/>
</svg>
